<?xml version="1.0" encoding="UTF-8" standalone="no"?>
<!DOCTYPE svg PUBLIC "-//W3C//DTD SVG 1.1//EN" "http://www.w3.org/Graphics/SVG/1.1/DTD/svg11.dtd">
<svg width="100%" height="100%" viewBox="0 0 316 530" version="1.1" xmlns="http://www.w3.org/2000/svg" xmlns:xlink="http://www.w3.org/1999/xlink" xml:space="preserve" xmlns:serif="http://www.serif.com/" style="fill-rule:evenodd;clip-rule:evenodd;stroke-linejoin:round;stroke-miterlimit:2;">
    <g transform="matrix(1,0,0,1,-144.696,-37.4795)">
        <g>
            <g transform="matrix(1,0,0,1,234.188,37.4749)">
                <path d="M0,529.862C-0.552,529.862 -1,529.415 -1,528.862L-1,422.843C-1,400.726 -13.708,368.413 -49.377,344.051C-50.783,343.091 -51.364,341.313 -50.789,339.729C-45.387,324.834 -18.439,247.119 -18.439,179.856C-18.439,113.725 -28.678,59.917 -30.731,49.801C-31.098,47.995 -30.11,46.215 -28.381,45.569C-19.123,42.112 29.037,23.671 67.979,0.148C68.148,0.046 68.348,0 68.541,0.005C130.017,2.713 157.891,43.85 162.854,52.069C163.324,52.848 163.462,53.76 163.243,54.638C160.974,63.718 149.659,112.445 149.659,180.189C149.659,257.764 172.562,328.545 177.153,341.946C177.894,344.109 177.078,346.527 175.169,347.825C137.373,373.512 121.956,400.169 121.956,439.832C121.956,463.383 123.139,528.192 123.151,528.843C123.161,529.396 122.722,529.851 122.17,529.862C121.618,529.833 121.162,529.432 121.151,528.881C121.14,528.228 119.956,463.401 119.956,439.832C119.956,399.417 135.626,372.281 174.045,346.171C175.21,345.378 175.71,343.907 175.261,342.594C170.652,329.14 147.659,258.082 147.659,180.189C147.659,112.211 159.024,63.273 161.302,54.154C161.392,53.795 161.335,53.422 161.142,53.102C159.085,49.696 151.209,37.682 136.24,26.112C117.084,11.307 94.38,3.2 68.754,2.016C29.705,25.556 -18.414,43.982 -27.681,47.443C-28.483,47.742 -28.941,48.567 -28.771,49.404C-26.712,59.552 -16.439,113.533 -16.439,179.856C-16.439,247.454 -43.487,325.46 -48.909,340.411C-49.172,341.136 -48.901,341.955 -48.249,342.399C-11.938,367.2 1,400.216 1,422.843L1,528.862C1,529.415 0.552,529.862 0,529.862" style="fill:rgb(67,111,142);fill-rule:nonzero;"/>
            </g>
            <g transform="matrix(1,0,0,1,240.144,44.5966)">
                <path d="M0,435.294C-0.552,435.294 -1,434.847 -1,434.294L-1,411.455C-1,389.932 -12.507,358.49 -44.805,334.794C-46.083,333.856 -46.616,332.131 -46.099,330.599C-41.206,316.103 -16.796,240.479 -16.796,175.033C-16.796,112.98 -25.523,61.966 -28.198,47.809C-28.529,46.055 -27.617,44.319 -26.03,43.682C-25.056,43.292 -23.709,42.767 -22.037,42.116C-6.903,36.225 33.3,20.576 64.741,0.175C64.929,0.054 65.157,0 65.375,0.018C124.495,5.307 147.963,45.9 148.933,47.625C149.356,48.378 149.48,49.258 149.284,50.103C146.083,63.868 135.65,113.543 135.65,175.357C135.65,250.838 156.396,319.714 160.555,332.755C161.223,334.851 160.478,337.198 158.743,338.466C123.014,364.55 108.44,390.485 108.44,427.983L108.396,434.301C108.393,434.853 107.935,435.273 107.39,435.294C106.837,435.29 106.393,434.839 106.396,434.287L106.44,427.977C106.44,407.635 110.961,390.301 120.261,374.992C128.386,361.618 140.239,349.498 157.563,336.851C158.613,336.084 159.06,334.649 158.649,333.362C154.475,320.273 133.65,251.134 133.65,175.357C133.65,113.33 144.123,63.467 147.333,49.663C147.418,49.297 147.365,48.917 147.189,48.605C144.669,44.122 137.189,34.054 125.143,24.761C108.312,11.775 88.259,4.132 65.54,2.042C33.97,22.461 -6.171,38.086 -21.312,43.98C-22.976,44.628 -24.316,45.15 -25.286,45.539C-25.989,45.821 -26.387,46.62 -26.232,47.438C-23.55,61.638 -14.796,112.806 -14.796,175.033C-14.796,240.791 -39.293,316.69 -44.204,331.238C-44.445,331.953 -44.206,332.753 -43.622,333.181C-10.722,357.319 1,389.442 1,411.455L1,434.294C1,434.847 0.552,435.294 0,435.294" style="fill:rgb(67,111,142);fill-rule:nonzero;"/>
            </g>
            <g transform="matrix(1,0,0,1,355.146,477.891)">
                <path d="M0,2L-120.958,2C-121.51,2 -121.958,1.553 -121.958,1C-121.958,0.447 -121.51,0 -120.958,0L0,0C0.552,0 1,0.447 1,1C1,1.553 0.552,2 0,2" style="fill:rgb(67,111,142);fill-rule:nonzero;"/>
            </g>
            <g transform="matrix(1,0,0,1,355.146,493.499)">
                <path d="M0,2L-120.958,2C-121.51,2 -121.958,1.553 -121.958,1C-121.958,0.447 -121.51,0 -120.958,0L0,0C0.552,0 1,0.447 1,1C1,1.553 0.552,2 0,2" style="fill:rgb(67,111,142);fill-rule:nonzero;"/>
            </g>
            <g transform="matrix(1,0,0,1,229.445,358.36)">
                <path d="M0,-33.563C-9.253,-33.563 -16.781,-26.035 -16.781,-16.781C-16.781,-7.528 -9.253,0 0,0C9.253,0 16.781,-7.528 16.781,-16.781C16.781,-26.035 9.253,-33.563 0,-33.563M0,2C-10.356,2 -18.781,-6.424 -18.781,-16.781C-18.781,-27.137 -10.356,-35.563 0,-35.563C10.356,-35.563 18.781,-27.137 18.781,-16.781C18.781,-6.424 10.356,2 0,2" style="fill:rgb(67,111,142);fill-rule:nonzero;"/>
            </g>
            <g transform="matrix(1,0,0,1,219.776,351.295)">
                <path d="M0,-20.436L0.01,-20.436L0,-20.436ZM13.145,-22.519C13.084,-22.519 13.024,-22.514 12.963,-22.504L1.83,-20.764C1.421,-20.701 1.082,-20.434 0.924,-20.052L0.923,-20.052L-3.863,-8.529C-4.026,-8.136 -3.964,-7.684 -3.701,-7.349L3.473,1.774C3.698,2.06 4.036,2.224 4.399,2.224L13.596,2.224C14.008,2.224 14.396,2.004 14.607,1.651L21.937,-10.594C22.186,-11.011 22.156,-11.531 21.86,-11.917L14.08,-22.057C13.854,-22.351 13.508,-22.519 13.145,-22.519M13.596,4.224L4.399,4.224C3.418,4.224 2.507,3.782 1.901,3.01L-5.273,-6.113C-5.983,-7.015 -6.151,-8.235 -5.71,-9.296L-0.923,-20.82C-0.502,-21.834 0.435,-22.571 1.521,-22.741L12.654,-24.481C13.802,-24.66 14.958,-24.198 15.667,-23.274L23.447,-13.134C24.245,-12.093 24.326,-10.694 23.653,-9.567L16.323,2.678C15.752,3.631 14.707,4.224 13.596,4.224" style="fill:rgb(67,111,142);fill-rule:nonzero;"/>
            </g>
            <g transform="matrix(1,0,0,1,227.851,350.222)">
                <path d="M0,-17.044C-4.699,-17.044 -8.521,-13.222 -8.521,-8.523C-8.521,-3.823 -4.699,0 0,0C4.699,0 8.521,-3.823 8.521,-8.523C8.521,-13.222 4.699,-17.044 0,-17.044M0,2C-5.802,2 -10.521,-2.721 -10.521,-8.523C-10.521,-14.324 -5.802,-19.044 0,-19.044C5.802,-19.044 10.521,-14.324 10.521,-8.523C10.521,-2.721 5.802,2 0,2" style="fill:rgb(67,111,142);fill-rule:nonzero;"/>
            </g>
            <g transform="matrix(1,0,0,1,226.214,349.353)">
                <path d="M0,-15.305C2.006,-15.51 4.154,-14.793 5.686,-13.339C7.242,-11.909 8.152,-9.788 8.152,-7.654C8.153,-5.517 7.243,-3.396 5.687,-1.966C4.155,-0.511 2.006,0.205 0,-0.001C2.007,-0.194 3.839,-1.125 5.135,-2.518C6.427,-3.916 7.165,-5.776 7.152,-7.654C7.166,-9.531 6.428,-11.391 5.136,-12.789C3.84,-14.183 2.007,-15.114 0,-15.305" style="fill:rgb(67,111,142);fill-rule:nonzero;"/>
            </g>
            <g transform="matrix(1,0,0,1,365.539,359.513)">
                <path d="M0,-33.719C-9.296,-33.719 -16.859,-26.156 -16.859,-16.86C-16.859,-7.564 -9.296,0 0,0C9.296,0 16.859,-7.564 16.859,-16.86C16.859,-26.156 9.296,-33.719 0,-33.719M0,2C-10.399,2 -18.859,-6.46 -18.859,-16.86C-18.859,-27.259 -10.399,-35.719 0,-35.719C10.399,-35.719 18.859,-27.259 18.859,-16.86C18.859,-6.46 10.399,2 0,2" style="fill:rgb(67,111,142);fill-rule:nonzero;"/>
            </g>
            <g transform="matrix(1,0,0,1,367.311,355.163)">
                <path d="M0,-25.197L-11.348,-21.02C-11.623,-20.92 -11.824,-20.677 -11.874,-20.389L-13.931,-8.473C-13.981,-8.185 -13.872,-7.89 -13.647,-7.703L-4.356,0.037C-4.132,0.225 -3.823,0.28 -3.546,0.177L7.802,-3.999C8.076,-4.1 8.278,-4.343 8.328,-4.631L10.385,-16.547C10.435,-16.835 10.326,-17.13 10.102,-17.317L0.81,-25.057C0.585,-25.246 0.275,-25.3 0,-25.197M-3.827,2.227C-4.479,2.227 -5.122,2.002 -5.636,1.574L-14.927,-6.166C-15.699,-6.808 -16.073,-7.823 -15.902,-8.813L-13.845,-20.729C-13.674,-21.719 -12.981,-22.551 -12.039,-22.897L-0.69,-27.074C0.254,-27.424 1.317,-27.237 2.09,-26.594L11.381,-18.854C12.153,-18.212 12.527,-17.197 12.355,-16.206L10.298,-4.291C10.127,-3.301 9.436,-2.47 8.494,-2.122L-2.856,2.054C-3.171,2.17 -3.5,2.227 -3.827,2.227" style="fill:rgb(67,111,142);fill-rule:nonzero;"/>
            </g>
            <g transform="matrix(1,0,0,1,364.748,351.697)">
                <path d="M0,-18.088C-4.987,-18.088 -9.044,-14.031 -9.044,-9.044C-9.044,-4.057 -4.987,0 0,0C4.987,0 9.044,-4.057 9.044,-9.044C9.044,-14.031 4.987,-18.088 0,-18.088M0,2C-6.09,2 -11.044,-2.954 -11.044,-9.044C-11.044,-15.134 -6.09,-20.088 0,-20.088C6.09,-20.088 11.044,-15.134 11.044,-9.044C11.044,-2.954 6.09,2 0,2" style="fill:rgb(67,111,142);fill-rule:nonzero;"/>
            </g>
            <g transform="matrix(1,0,0,1,363.746,335.523)">
                <path d="M0,16.358C2.206,16.407 4.426,15.544 6.034,13.984C7.652,12.437 8.624,10.222 8.658,7.951C8.708,5.68 7.816,3.393 6.211,1.74C4.618,0.076 2.337,-0.923 0,-0.957C2.335,-1.007 4.689,-0.089 6.388,1.563C8.098,3.201 9.125,5.548 9.158,7.951C9.208,10.35 8.262,12.77 6.564,14.514C4.881,16.271 2.467,17.325 0,17.358C-0.276,17.365 -0.505,17.145 -0.511,16.87C-0.517,16.593 -0.298,16.365 -0.022,16.358L0,16.358Z" style="fill:rgb(67,111,142);fill-rule:nonzero;"/>
            </g>
            <g transform="matrix(1,0,0,1,246.065,255.077)">
                <path d="M0,-33.237C-9.163,-33.237 -16.618,-25.782 -16.618,-16.619C-16.618,-7.455 -9.163,0 0,0C9.164,0 16.619,-7.455 16.619,-16.619C16.619,-25.782 9.164,-33.237 0,-33.237M0,2C-10.266,2 -18.618,-6.352 -18.618,-16.619C-18.618,-26.885 -10.266,-35.237 0,-35.237C10.267,-35.237 18.619,-26.885 18.619,-16.619C18.619,-6.352 10.267,2 0,2" style="fill:rgb(67,111,142);fill-rule:nonzero;"/>
            </g>
            <g transform="matrix(1,0,0,1,244.846,252.262)">
                <path d="M0,-27.177L0.01,-27.177L0,-27.177ZM0.934,-26.434C0.788,-26.434 0.642,-26.395 0.513,-26.319L-9.87,-20.12C-10.122,-19.969 -10.275,-19.695 -10.271,-19.402L-10.094,-7.311C-10.09,-7.018 -9.929,-6.748 -9.673,-6.606L0.887,-0.713C1.142,-0.57 1.457,-0.574 1.708,-0.725L12.091,-6.924C12.342,-7.074 12.496,-7.348 12.491,-7.641L12.314,-19.732C12.311,-20.025 12.149,-20.296 11.893,-20.438L1.334,-26.33C1.21,-26.4 1.072,-26.434 0.934,-26.434M1.287,1.39C0.812,1.39 0.338,1.271 -0.088,1.033L-10.647,-4.86C-11.525,-5.349 -12.079,-6.277 -12.094,-7.282L-12.271,-19.373C-12.285,-20.378 -11.758,-21.322 -10.896,-21.837L-0.513,-28.035C0.351,-28.551 1.432,-28.567 2.309,-28.076L12.868,-22.184C13.746,-21.694 14.3,-20.766 14.314,-19.761L14.491,-7.671C14.506,-6.666 13.979,-5.721 13.116,-5.206L2.733,0.991C2.29,1.257 1.789,1.39 1.287,1.39" style="fill:rgb(67,111,142);fill-rule:nonzero;"/>
            </g>
            <g transform="matrix(1,0,0,1,245.355,245.661)">
                <path d="M0,-17.123C-0.043,-17.123 -0.085,-17.123 -0.128,-17.122C-2.417,-17.089 -4.555,-16.166 -6.149,-14.524C-7.744,-12.883 -8.604,-10.718 -8.57,-8.43C-8.537,-6.142 -7.614,-4.003 -5.973,-2.409C-4.331,-0.814 -2.176,0.031 0.122,0.012C2.41,-0.021 4.548,-0.944 6.143,-2.586C7.737,-4.227 8.597,-6.392 8.563,-8.68C8.53,-10.969 7.607,-13.107 5.966,-14.701C4.355,-16.266 2.241,-17.123 0,-17.123M-0.008,2.013C-2.771,2.013 -5.379,0.956 -7.366,-0.974C-9.391,-2.941 -10.529,-5.579 -10.57,-8.401C-10.611,-11.224 -9.551,-13.893 -7.584,-15.918C-5.618,-17.943 -2.98,-19.081 -0.158,-19.122C2.673,-19.136 5.334,-18.102 7.359,-16.136C9.384,-14.169 10.522,-11.532 10.563,-8.709C10.604,-5.887 9.544,-3.217 7.578,-1.192C5.611,0.833 2.973,1.97 0.151,2.012C0.098,2.012 0.045,2.013 -0.008,2.013" style="fill:rgb(67,111,142);fill-rule:nonzero;"/>
            </g>
            <g transform="matrix(1,0,0,1,252.063,244.773)">
                <path d="M0,-10.232C0.783,-8.492 0.778,-6.344 -0.08,-4.533C-0.906,-2.707 -2.551,-1.259 -4.478,-0.63C-6.405,0 -8.588,-0.197 -10.333,-1.183C-12.095,-2.139 -13.367,-3.871 -13.76,-5.738C-12.987,-3.993 -11.609,-2.629 -9.98,-1.879C-8.346,-1.134 -6.466,-1.02 -4.789,-1.58C-3.103,-2.117 -1.652,-3.319 -0.773,-4.885C0.1,-6.452 0.407,-8.367 0,-10.232" style="fill:rgb(67,111,142);fill-rule:nonzero;"/>
            </g>
            <g transform="matrix(1,0,0,1,350.857,255.077)">
                <path d="M0,-33.237C-9.163,-33.237 -16.618,-25.782 -16.618,-16.619C-16.618,-7.455 -9.163,0 0,0C9.163,0 16.618,-7.455 16.618,-16.619C16.618,-25.782 9.163,-33.237 0,-33.237M0,2C-10.266,2 -18.618,-6.352 -18.618,-16.619C-18.618,-26.885 -10.266,-35.237 0,-35.237C10.266,-35.237 18.618,-26.885 18.618,-16.619C18.618,-6.352 10.266,2 0,2" style="fill:rgb(67,111,142);fill-rule:nonzero;"/>
            </g>
            <g transform="matrix(1,0,0,1,344.901,249.759)">
                <path d="M0,-22.622C-0.292,-22.622 -0.563,-22.466 -0.71,-22.214L-6.786,-11.758C-6.933,-11.505 -6.933,-11.19 -6.788,-10.935L-0.771,-0.447C-0.625,-0.193 -0.353,-0.035 -0.061,-0.034L12.032,0L12.034,0C12.326,0 12.598,-0.157 12.745,-0.41L18.819,-10.865C18.967,-11.118 18.967,-11.432 18.822,-11.686L12.805,-22.175C12.659,-22.429 12.388,-22.587 12.095,-22.588L0.002,-22.622L0,-22.622ZM12.034,2L12.026,2L-0.066,1.966C-1.071,1.963 -2.006,1.42 -2.506,0.548L-8.522,-9.941C-9.022,-10.813 -9.02,-11.894 -8.515,-12.762L-2.439,-23.218C-1.936,-24.084 -1.002,-24.622 0,-24.622L0.008,-24.622L12.101,-24.588C13.105,-24.585 14.04,-24.042 14.54,-23.17L20.557,-12.681C21.057,-11.809 21.054,-10.728 20.548,-9.859L14.474,0.596C13.97,1.462 13.036,2 12.034,2" style="fill:rgb(67,111,142);fill-rule:nonzero;"/>
            </g>
            <g transform="matrix(1,0,0,1,350.606,245.947)">
                <path d="M0,-17.127C-0.043,-17.127 -0.085,-17.127 -0.128,-17.126C-2.417,-17.093 -4.555,-16.17 -6.149,-14.528C-7.744,-12.887 -8.604,-10.722 -8.57,-8.434C-8.537,-6.146 -7.614,-4.007 -5.973,-2.413C-4.331,-0.818 -2.169,0.029 0.122,0.008C4.846,-0.062 8.632,-3.961 8.563,-8.685C8.53,-10.973 7.607,-13.111 5.966,-14.706C4.355,-16.27 2.241,-17.127 0,-17.127M-0.007,2.009C-2.771,2.009 -5.379,0.952 -7.366,-0.978C-9.391,-2.945 -10.529,-5.583 -10.57,-8.405C-10.611,-11.228 -9.551,-13.897 -7.584,-15.922C-5.618,-17.947 -2.98,-19.085 -0.158,-19.126C2.673,-19.136 5.334,-18.106 7.359,-16.14C9.384,-14.174 10.522,-11.536 10.563,-8.714C10.648,-2.888 5.978,1.922 0.151,2.008C0.099,2.008 0.045,2.009 -0.007,2.009" style="fill:rgb(67,111,142);fill-rule:nonzero;"/>
            </g>
            <g transform="matrix(1,0,0,1,357.885,242.984)">
                <path d="M0,-5.013C-0.053,-3.105 -0.994,-1.175 -2.555,0.082C-4.095,1.365 -6.206,1.951 -8.215,1.679C-10.224,1.406 -12.102,0.277 -13.243,-1.37C-14.413,-2.998 -14.803,-5.111 -14.344,-6.964C-14.408,-5.056 -13.762,-3.228 -12.622,-1.843C-11.477,-0.461 -9.834,0.462 -8.08,0.688C-6.329,0.94 -4.5,0.489 -3.026,-0.537C-1.557,-1.567 -0.446,-3.158 0,-5.013" style="fill:rgb(67,111,142);fill-rule:nonzero;"/>
            </g>
            <g transform="matrix(1,0,0,1,244.627,152.8)">
                <path d="M0,-32.33C-8.913,-32.33 -16.165,-25.079 -16.165,-16.165C-16.165,-7.252 -8.913,0 0,0C8.914,0 16.165,-7.252 16.165,-16.165C16.165,-25.079 8.914,-32.33 0,-32.33M0,2C-10.016,2 -18.165,-6.149 -18.165,-16.165C-18.165,-26.182 -10.016,-34.33 0,-34.33C10.016,-34.33 18.165,-26.182 18.165,-16.165C18.165,-6.149 10.016,2 0,2" style="fill:rgb(67,111,142);fill-rule:nonzero;"/>
            </g>
            <g transform="matrix(1,0,0,1,240.688,149.302)">
                <path d="M0,-26.367L0.01,-26.367L0,-26.367ZM1.185,-25.805C0.992,-25.805 0.801,-25.737 0.65,-25.608L0.65,-25.607L-8.535,-17.743C-8.758,-17.553 -8.862,-17.256 -8.809,-16.968L-6.591,-5.081C-6.537,-4.793 -6.333,-4.555 -6.057,-4.457L5.347,-0.434C5.624,-0.336 5.933,-0.394 6.155,-0.584L15.34,-8.449C15.563,-8.639 15.667,-8.936 15.614,-9.224L13.396,-21.111C13.342,-21.399 13.137,-21.638 12.861,-21.736L1.458,-25.758C1.369,-25.789 1.277,-25.805 1.185,-25.805M5.618,1.612C5.303,1.612 4.987,1.559 4.682,1.452L-6.722,-2.571C-7.669,-2.905 -8.373,-3.726 -8.557,-4.715L-10.775,-16.601C-10.959,-17.59 -10.599,-18.609 -9.836,-19.263L-0.65,-27.127L-0.65,-27.126C0.113,-27.78 1.176,-27.979 2.124,-27.644L13.527,-23.621C14.475,-23.286 15.177,-22.466 15.362,-21.478L17.58,-9.591C17.764,-8.603 17.405,-7.583 16.641,-6.93L7.456,0.935C6.938,1.378 6.282,1.612 5.618,1.612" style="fill:rgb(67,111,142);fill-rule:nonzero;"/>
            </g>
            <g transform="matrix(1,0,0,1,243.334,143.483)">
                <path d="M0,-17.28C-4.764,-17.28 -8.64,-13.404 -8.64,-8.64C-8.64,-3.876 -4.764,0 0,0C4.764,0 8.64,-3.876 8.64,-8.64C8.64,-13.404 4.764,-17.28 0,-17.28M0,2C-5.867,2 -10.64,-2.773 -10.64,-8.64C-10.64,-14.507 -5.867,-19.28 0,-19.28C5.867,-19.28 10.64,-14.507 10.64,-8.64C10.64,-2.773 5.867,2 0,2" style="fill:rgb(67,111,142);fill-rule:nonzero;"/>
            </g>
            <g transform="matrix(1,0,0,1,250.335,141.483)">
                <path d="M0,-9.525C0.553,-7.645 0.249,-5.462 -0.873,-3.739C-1.965,-1.997 -3.836,-0.752 -5.881,-0.376C-7.926,0 -10.117,-0.499 -11.758,-1.739C-13.419,-2.951 -14.479,-4.884 -14.628,-6.839C-14.086,-4.955 -12.873,-3.372 -11.315,-2.381C-9.753,-1.395 -7.85,-1.019 -6.062,-1.359C-4.268,-1.675 -2.623,-2.703 -1.513,-4.18C-0.408,-5.66 0.164,-7.572 0,-9.525" style="fill:rgb(67,111,142);fill-rule:nonzero;"/>
            </g>
            <g transform="matrix(1,0,0,1,354.397,152.8)">
                <path d="M0,-32.33C-8.913,-32.33 -16.165,-25.079 -16.165,-16.165C-16.165,-7.252 -8.913,0 0,0C8.914,0 16.165,-7.252 16.165,-16.165C16.165,-25.079 8.914,-32.33 0,-32.33M0,2C-10.016,2 -18.165,-6.149 -18.165,-16.165C-18.165,-26.182 -10.016,-34.33 0,-34.33C10.016,-34.33 18.165,-26.182 18.165,-16.165C18.165,-6.149 10.016,2 0,2" style="fill:rgb(67,111,142);fill-rule:nonzero;"/>
            </g>
            <g transform="matrix(1,0,0,1,357.152,148.737)">
                <path d="M0,-25.24C-0.092,-25.24 -0.184,-25.225 -0.272,-25.194L-11.676,-21.171C-11.952,-21.073 -12.157,-20.834 -12.21,-20.547L-14.429,-8.659C-14.482,-8.372 -14.377,-8.074 -14.155,-7.884L-4.97,-0.02C-4.748,0.171 -4.438,0.228 -4.162,0.13L7.242,-3.892C7.518,-3.99 7.723,-4.229 7.776,-4.517L9.994,-16.404C10.047,-16.691 9.943,-16.989 9.721,-17.179L0.535,-25.043C0.384,-25.172 0.193,-25.24 0,-25.24M-4.432,2.176C-5.097,2.176 -5.752,1.943 -6.271,1.499L-15.456,-6.365C-16.219,-7.019 -16.579,-8.038 -16.395,-9.026L-14.176,-20.914C-13.993,-21.901 -13.29,-22.722 -12.342,-23.057L-0.938,-27.079C0.007,-27.416 1.071,-27.216 1.836,-26.562L11.021,-18.698C11.784,-18.044 12.144,-17.025 11.96,-16.037L9.742,-4.15C9.558,-3.161 8.854,-2.34 7.907,-2.006L-3.497,2.016C-3.801,2.124 -4.118,2.176 -4.432,2.176" style="fill:rgb(67,111,142);fill-rule:nonzero;"/>
            </g>
            <g transform="matrix(1,0,0,1,355.69,143.483)">
                <path d="M0,-17.28C-4.764,-17.28 -8.64,-13.404 -8.64,-8.64C-8.64,-3.876 -4.764,0 0,0C4.764,0 8.64,-3.876 8.64,-8.64C8.64,-13.404 4.764,-17.28 0,-17.28M0,2C-5.867,2 -10.64,-2.773 -10.64,-8.64C-10.64,-14.507 -5.867,-19.28 0,-19.28C5.867,-19.28 10.64,-14.507 10.64,-8.64C10.64,-2.773 5.867,2 0,2" style="fill:rgb(67,111,142);fill-rule:nonzero;"/>
            </g>
            <g transform="matrix(1,0,0,1,348.69,141.483)">
                <path d="M0,-9.525C-0.164,-7.572 0.408,-5.66 1.513,-4.18C2.623,-2.703 4.268,-1.675 6.062,-1.359C7.851,-1.019 9.753,-1.395 11.315,-2.381C12.873,-3.372 14.087,-4.955 14.629,-6.839C14.479,-4.884 13.419,-2.951 11.758,-1.739C10.118,-0.499 7.926,0 5.881,-0.376C3.836,-0.752 1.965,-1.997 0.873,-3.739C-0.249,-5.462 -0.553,-7.645 0,-9.525" style="fill:rgb(67,111,142);fill-rule:nonzero;"/>
            </g>
            <g transform="matrix(1,0,0,1,242.88,340.682)">
                <path d="M0,226.655C-0.012,226.655 -0.024,226.655 -0.037,226.654C-0.588,226.634 -1.02,226.171 -1,225.619C1.843,146.926 -6.422,2.524 -6.506,1.075C-6.538,0.524 -6.116,0.051 -5.565,0.019C-5.013,0 -4.541,0.408 -4.509,0.96C-4.425,2.41 3.846,146.904 0.999,225.691C0.979,226.231 0.536,226.655 0,226.655" style="fill:rgb(67,111,142);fill-rule:nonzero;"/>
            </g>
            <g transform="matrix(1,0,0,1,263.229,239.111)">
                <path d="M0,328.226C-0.017,328.226 -0.033,328.226 -0.05,328.225C-0.602,328.198 -1.027,327.729 -1,327.177C1.525,275.803 -9.694,3.799 -9.807,1.058C-9.83,0.506 -9.401,0.04 -8.85,0.017C-8.303,0 -7.832,0.423 -7.809,0.975C-7.695,3.717 3.527,275.812 0.998,327.275C0.972,327.81 0.53,328.226 0,328.226" style="fill:rgb(67,111,142);fill-rule:nonzero;"/>
            </g>
            <g transform="matrix(1,0,0,1,286.239,136.959)">
                <path d="M0,430.378C-0.552,430.378 -1,429.931 -1,429.378L-1,357.54C-1.314,354.194 -32.853,13.674 -34.804,1.228C-34.89,0.683 -34.517,0.171 -33.971,0.086C-33.43,0 -32.914,0.373 -32.829,0.919C-30.867,13.427 -0.304,343.407 0.996,357.448L1,429.378C1,429.931 0.552,430.378 0,430.378" style="fill:rgb(67,111,142);fill-rule:nonzero;"/>
            </g>
            <g transform="matrix(1,0,0,1,348.789,347.741)">
                <path d="M0,219.596C-0.536,219.596 -0.979,219.172 -0.999,218.632C-3.846,139.835 6.903,2.334 7.012,0.954C7.056,0.405 7.532,0 8.087,0.036C8.638,0.08 9.049,0.562 9.006,1.113C8.897,2.491 -1.843,139.878 1,218.56C1.02,219.112 0.588,219.575 0.037,219.595C0.024,219.596 0.012,219.596 0,219.596" style="fill:rgb(67,111,142);fill-rule:nonzero;"/>
            </g>
            <g transform="matrix(1,0,0,1,328.44,238.262)">
                <path d="M0,329.075C-0.53,329.075 -0.972,328.659 -0.998,328.124C-3.528,276.653 11.638,3.718 11.791,0.967C11.822,0.415 12.301,0 12.845,0.024C13.396,0.054 13.819,0.527 13.788,1.078C13.635,3.828 -1.525,276.659 1,328.026C1.027,328.578 0.602,329.047 0.05,329.074C0.033,329.075 0.017,329.075 0,329.075" style="fill:rgb(67,111,142);fill-rule:nonzero;"/>
            </g>
            <g transform="matrix(1,0,0,1,305.43,133.77)">
                <path d="M0,433.567C-0.552,433.567 -1,433.12 -1,432.567L-1,360.729C-1,360.692 -0.998,360.655 -0.994,360.619C-0.607,357.148 37.672,13.418 39.632,0.919C39.718,0.373 40.237,0 40.775,0.086C41.321,0.171 41.694,0.683 41.608,1.228C39.663,13.636 1.674,354.731 1,360.785L1,432.567C1,433.12 0.552,433.567 0,433.567" style="fill:rgb(67,111,142);fill-rule:nonzero;"/>
            </g>
            <g transform="matrix(1,0,0,1,397.536,312.75)">
                <path d="M0,22.362C-0.421,22.362 -0.813,22.093 -0.951,21.672C-1.122,21.146 -0.834,20.582 -0.31,20.411L14.479,15.598L14.479,4.295L-4.579,2.05C-5.127,1.986 -5.52,1.489 -5.455,0.94C-5.391,0.391 -4.893,0 -4.345,0.064L15.595,2.412C16.099,2.471 16.479,2.898 16.479,3.405L16.479,16.325C16.479,16.758 16.2,17.142 15.788,17.276L0.31,22.313C0.207,22.346 0.103,22.362 0,22.362" style="fill:rgb(67,111,142);fill-rule:nonzero;"/>
            </g>
            <g transform="matrix(1,0,0,1,408.686,315.146)">
                <path d="M0,15.653C-0.276,15.653 -0.5,15.429 -0.5,15.153L-0.5,0.5C-0.5,0.223 -0.276,0 0,0C0.276,0 0.5,0.223 0.5,0.5L0.5,15.153C0.5,15.429 0.276,15.653 0,15.653" style="fill:rgb(67,111,142);fill-rule:nonzero;"/>
            </g>
            <g transform="matrix(1,0,0,1,0,105.255)">
                <path d="M414.014,222.675L415.118,222.675L415.118,212.071L414.014,212.071L414.014,222.675ZM416.118,224.675L413.014,224.675C412.462,224.675 412.014,224.227 412.014,223.675L412.014,211.07C412.014,210.517 412.462,210.07 413.014,210.07L416.118,210.07C416.67,210.07 417.118,210.517 417.118,211.07L417.118,223.675C417.118,224.227 416.67,224.675 416.118,224.675" style="fill:rgb(67,111,142);fill-rule:nonzero;"/>
            </g>
            <g transform="matrix(1,0,0,1,444.347,292.396)">
                <path d="M0,57.554C-5.31,57.554 -10.288,54.41 -12.892,51.26C-17.434,45.77 -23.364,42.423 -25.073,41.528C-28.622,39.669 -29.189,36.837 -29.212,36.718C-29.313,36.175 -28.956,35.653 -28.413,35.551C-27.876,35.448 -27.354,35.802 -27.248,36.339C-27.227,36.437 -26.781,38.375 -24.146,39.756C-21.847,40.959 -16,44.365 -11.351,49.986C-9.019,52.807 -4.558,55.634 0.167,55.553C3.942,55.497 7.287,53.632 10.108,50.009C17.824,40.102 13.196,12.572 7.741,6.399C5.207,3.531 0.769,2.045 -3.828,2.541C-8.116,2.995 -11.678,5.049 -13.356,8.033C-17.269,14.987 -21.916,20.186 -25.196,21.28C-27.229,21.957 -27.229,22.784 -27.229,23.929C-27.229,24.482 -27.677,24.929 -28.229,24.929C-28.781,24.929 -29.229,24.482 -29.229,23.929C-29.229,22.653 -29.229,20.516 -25.829,19.382C-23.58,18.633 -19.264,14.455 -15.1,7.052C-13.104,3.505 -8.97,1.075 -4.039,0.552C1.193,0 6.283,1.729 9.24,5.075C15.162,11.777 20.062,40.484 11.687,51.238C8.519,55.305 4.546,57.489 0.196,57.552C0.131,57.553 0.065,57.554 0,57.554" style="fill:rgb(67,111,142);fill-rule:nonzero;"/>
            </g>
            <g transform="matrix(1,0,0,1,416.345,346.616)">
                <path d="M0,-21.403C2.787,-19.906 5.463,-18.258 7.998,-16.368C9.257,-15.417 10.481,-14.403 11.581,-13.248C12.658,-12.098 13.686,-10.908 14.683,-9.699C16.692,-7.302 18.54,-4.753 20.963,-2.804C22.173,-1.841 23.543,-1.07 25.026,-0.595C26.508,-0.119 28.072,0.08 29.635,0.111C28.073,0.131 26.497,-0.015 24.981,-0.449C23.466,-0.879 22.042,-1.618 20.776,-2.56C18.239,-4.467 16.293,-6.983 14.215,-9.299C12.139,-11.642 10.038,-13.914 7.494,-15.687C4.984,-17.498 2.292,-19.094 -0.453,-20.512L-0.466,-20.518C-0.711,-20.645 -0.808,-20.947 -0.681,-21.192C-0.554,-21.437 -0.252,-21.534 -0.007,-21.407C-0.005,-21.406 -0.001,-21.404 0,-21.403" style="fill:rgb(67,111,142);fill-rule:nonzero;"/>
            </g>
            <g transform="matrix(1,0,0,1,384.056,217.492)">
                <path d="M0,22.372C-0.416,22.372 -0.805,22.11 -0.946,21.694C-1.125,21.171 -0.845,20.603 -0.323,20.425L13.777,15.619L13.777,4.271L-0.499,2.056C-1.045,1.971 -1.418,1.46 -1.334,0.914C-1.249,0.368 -0.734,0 -0.192,0.079L14.931,2.426C15.418,2.502 15.777,2.921 15.777,3.414L15.777,16.335C15.777,16.763 15.505,17.143 15.1,17.281L0.323,22.318C0.216,22.354 0.107,22.372 0,22.372" style="fill:rgb(67,111,142);fill-rule:nonzero;"/>
            </g>
            <g transform="matrix(1,0,0,1,394.505,219.897)">
                <path d="M0,15.653C-0.276,15.653 -0.5,15.429 -0.5,15.153L-0.5,0.5C-0.5,0.223 -0.276,0 0,0C0.276,0 0.5,0.223 0.5,0.5L0.5,15.153C0.5,15.429 0.276,15.653 0,15.653" style="fill:rgb(67,111,142);fill-rule:nonzero;"/>
            </g>
            <g transform="matrix(1,0,0,1,0,-85.242)">
                <path d="M399.833,317.923L400.937,317.923L400.937,307.319L399.833,307.319L399.833,317.923ZM401.937,319.923L398.833,319.923C398.281,319.923 397.833,319.475 397.833,318.923L397.833,306.319C397.833,305.766 398.281,305.319 398.833,305.319L401.937,305.319C402.489,305.319 402.937,305.766 402.937,306.319L402.937,318.923C402.937,319.475 402.489,319.923 401.937,319.923" style="fill:rgb(67,111,142);fill-rule:nonzero;"/>
            </g>
            <g transform="matrix(1,0,0,1,430.166,197.088)">
                <path d="M0,57.614C-5.31,57.614 -10.288,54.47 -12.893,51.321C-17.429,45.834 -23.363,42.484 -25.073,41.587C-28.622,39.729 -29.19,36.898 -29.212,36.778C-29.314,36.235 -28.957,35.713 -28.414,35.611C-27.872,35.51 -27.354,35.862 -27.249,36.4C-27.226,36.504 -26.776,38.438 -24.146,39.816C-21.846,41.021 -15.996,44.429 -11.352,50.046C-9.019,52.867 -4.519,55.697 0.167,55.613C3.942,55.557 7.287,53.692 10.108,50.069C17.898,40.066 14.229,14.162 7.597,6.363C5.164,3.501 0.996,2.052 -3.553,2.492C-7.958,2.917 -11.623,5.01 -13.357,8.092C-17.268,15.046 -21.915,20.245 -25.196,21.339C-27.229,22.017 -27.229,22.844 -27.229,23.989C-27.229,24.541 -27.677,24.989 -28.229,24.989C-28.782,24.989 -29.229,24.541 -29.229,23.989C-29.229,22.712 -29.229,20.575 -25.829,19.442C-23.58,18.692 -19.264,14.514 -15.1,7.112C-13.046,3.46 -8.801,0.989 -3.745,0.501C1.452,0 6.264,1.707 9.121,5.067C16.161,13.347 20.223,40.336 11.687,51.298C8.519,55.365 4.546,57.549 0.196,57.613C0.131,57.614 0.065,57.614 0,57.614" style="fill:rgb(67,111,142);fill-rule:nonzero;"/>
            </g>
            <g transform="matrix(1,0,0,1,402.414,251.083)">
                <path d="M0,-23.51C0.44,-22.076 1.545,-20.876 2.745,-19.833C3.958,-18.782 5.302,-17.849 6.628,-16.882C7.958,-15.915 9.287,-14.92 10.507,-13.78C11.721,-12.621 12.779,-11.372 13.848,-10.116C15.979,-7.616 17.887,-4.924 20.362,-2.804C21.601,-1.756 23.017,-0.907 24.562,-0.385C26.104,0.151 27.747,0.363 29.385,0.395C27.747,0.416 26.091,0.26 24.512,-0.232C22.931,-0.709 21.456,-1.527 20.159,-2.553C17.565,-4.634 15.559,-7.283 13.36,-9.693C12.272,-10.905 11.142,-12.107 9.973,-13.201C8.78,-14.284 7.465,-15.241 6.129,-16.183C4.794,-17.129 3.425,-18.047 2.141,-19.127C0.879,-20.201 -0.385,-21.479 -0.954,-23.209C-1.04,-23.471 -0.897,-23.754 -0.635,-23.84C-0.373,-23.926 -0.09,-23.783 -0.003,-23.521C-0.003,-23.519 -0.001,-23.512 0,-23.51" style="fill:rgb(67,111,142);fill-rule:nonzero;"/>
            </g>
            <g transform="matrix(1,0,0,1,387.929,119.029)">
                <path d="M0,22.714C-0.434,22.714 -0.833,22.429 -0.96,21.991C-1.114,21.461 -0.808,20.906 -0.277,20.753L13.054,16.899L14.07,5.519L2.797,2.073C2.27,1.912 1.972,1.353 2.133,0.824C2.295,0.297 2.855,0 3.382,0.16L15.431,3.843C15.883,3.982 16.176,4.418 16.134,4.889L14.985,17.758C14.949,18.169 14.664,18.515 14.267,18.63L0.278,22.674C0.186,22.701 0.092,22.714 0,22.714" style="fill:rgb(67,111,142);fill-rule:nonzero;"/>
            </g>
            <g transform="matrix(1,0,0,1,403.017,125.166)">
                <path d="M0,10.48L1.099,10.578L2.042,0.016L0.943,-0.083L0,10.48ZM2.007,12.663C1.978,12.663 1.948,12.662 1.917,12.659L-1.174,12.383C-1.438,12.36 -1.682,12.232 -1.852,12.029C-2.022,11.825 -2.104,11.563 -2.081,11.298L-0.96,-1.256C-0.937,-1.52 -0.809,-1.765 -0.606,-1.935C-0.402,-2.105 -0.141,-2.183 0.125,-2.164L3.216,-1.887C3.767,-1.838 4.172,-1.352 4.124,-0.802L3.002,11.752C2.956,12.272 2.52,12.663 2.007,12.663" style="fill:rgb(67,111,142);fill-rule:nonzero;"/>
            </g>
            <g transform="matrix(1,0,0,1,432.448,103.055)">
                <path d="M0,57.274C-0.326,57.274 -0.652,57.262 -0.98,57.237C-6.349,56.837 -11.116,53.217 -13.458,49.807C-17.49,43.937 -23.102,40.073 -24.726,39.028C-28.095,36.862 -28.408,33.991 -28.42,33.87C-28.473,33.32 -28.071,32.832 -27.521,32.779C-26.973,32.722 -26.489,33.123 -26.43,33.669C-26.417,33.774 -26.141,35.74 -23.644,37.346C-21.46,38.751 -15.938,42.666 -11.81,48.674C-9.738,51.691 -5.54,54.892 -0.832,55.243C2.937,55.517 6.43,53.963 9.563,50.606C18.128,41.423 15.966,13.59 11.083,6.957C8.813,3.876 4.515,2.003 -0.098,2.086C-4.409,2.158 -8.14,3.885 -10.077,6.708C-14.591,13.286 -19.682,18.052 -23.047,18.85C-25.133,19.344 -25.206,20.168 -25.308,21.309C-25.356,21.859 -25.844,22.265 -26.393,22.216C-26.942,22.167 -27.349,21.681 -27.3,21.131C-27.187,19.859 -26.997,17.731 -23.509,16.903C-21.202,16.357 -16.531,12.579 -11.726,5.576C-9.423,2.221 -5.088,0.169 -0.131,0.086C5.116,0 10.046,2.177 12.693,5.772C17.996,12.973 20.323,42.002 11.025,51.97C7.775,55.454 3.981,57.274 0,57.274" style="fill:rgb(67,111,142);fill-rule:nonzero;"/>
            </g>
            <g transform="matrix(1,0,0,1,405.915,156.781)">
                <path d="M0,-24.737C0.418,-23.372 1.589,-22.25 2.775,-21.244C3.984,-20.233 5.289,-19.294 6.547,-18.281C7.806,-17.27 9.033,-16.188 10.098,-14.939C11.134,-13.68 12.064,-12.375 12.984,-11.054C14.828,-8.429 16.464,-5.65 18.725,-3.405C19.854,-2.293 21.168,-1.357 22.635,-0.731C24.097,-0.091 25.677,0.256 27.268,0.43C25.672,0.308 24.075,0.013 22.575,-0.586C21.069,-1.17 19.696,-2.08 18.508,-3.176C16.128,-5.391 14.39,-8.141 12.471,-10.687C11.521,-11.967 10.536,-13.235 9.508,-14.429C8.473,-15.606 7.271,-16.636 6.019,-17.612C4.765,-18.591 3.451,-19.504 2.185,-20.53C0.953,-21.561 -0.375,-22.71 -0.957,-24.445C-1.044,-24.707 -0.903,-24.991 -0.642,-25.079C-0.38,-25.167 -0.096,-25.026 -0.008,-24.764L0,-24.737Z" style="fill:rgb(67,111,142);fill-rule:nonzero;"/>
            </g>
            <g transform="matrix(1,0,0,1,397.492,122.124)">
                <path d="M0,16.354C-0.019,16.354 -0.038,16.353 -0.057,16.351C-0.332,16.319 -0.528,16.072 -0.497,15.797L1.248,0.477C1.278,0.203 1.512,0 1.801,0.037C2.075,0.068 2.272,0.316 2.241,0.59L0.496,15.911C0.467,16.166 0.251,16.354 0,16.354" style="fill:rgb(67,111,142);fill-rule:nonzero;"/>
            </g>
            <g transform="matrix(1,0,0,1,198.243,317.291)">
                <path d="M0,16.842C-0.039,16.842 -0.078,16.84 -0.117,16.835L-6.983,16.035C-7.325,15.995 -7.622,15.783 -7.77,15.474C-10.933,8.858 -7.91,1.963 -7.78,1.673C-7.633,1.346 -7.322,1.122 -6.965,1.087L3.695,0.046C4.255,0 4.734,0.395 4.788,0.944C4.841,1.493 4.439,1.983 3.89,2.036L-6.16,3.018C-6.728,4.598 -8.155,9.464 -6.189,14.114L0.114,14.849C0.663,14.912 1.056,15.409 0.992,15.957C0.933,16.467 0.5,16.842 0,16.842" style="fill:rgb(67,111,142);fill-rule:nonzero;"/>
            </g>
            <g transform="matrix(1,0,0,1,194.875,318.391)">
                <path d="M0,14.849C-0.221,14.849 -0.423,14.702 -0.482,14.478C-2.752,5.981 0.162,0.555 0.287,0.328C0.421,0.087 0.724,0 0.966,0.132C1.208,0.265 1.296,0.569 1.163,0.811C1.135,0.863 -1.676,6.135 0.483,14.22C0.555,14.487 0.396,14.761 0.129,14.832C0.086,14.843 0.043,14.849 0,14.849" style="fill:rgb(67,111,142);fill-rule:nonzero;"/>
            </g>
            <g transform="matrix(1,0,0,1,188.266,316.943)">
                <path d="M0,16.797C-1.33,16.797 -2.512,15.901 -2.875,14.618C-4.523,8.808 -2.95,4.071 -1.866,1.765C-1.295,0.552 0.122,0 1.362,0.511L3.891,1.553C4.402,1.764 4.645,2.348 4.435,2.859C4.225,3.369 3.639,3.611 3.129,3.402L0.601,2.36C0.344,2.255 0.062,2.365 -0.056,2.616C-1.021,4.669 -2.422,8.889 -0.952,14.073C-0.835,14.484 -0.467,14.776 -0.048,14.796L3.395,14.397C3.943,14.333 4.44,14.726 4.503,15.275C4.567,15.823 4.174,16.319 3.625,16.383L0.115,16.79C0.077,16.795 0.039,16.797 0,16.797" style="fill:rgb(67,111,142);fill-rule:nonzero;"/>
            </g>
            <g transform="matrix(1,0,0,1,160.045,291.622)">
                <path d="M0,59.308C-2.481,59.308 -4.9,58.756 -6.981,57.654C-9.783,56.17 -13.359,52.998 -14.487,46.313C-16.302,35.562 -15.722,19 -8.114,7.706C-3.63,1.051 1.4,0 4.838,0.273C10.192,0.714 15.413,4.859 18.14,10.831C20.021,14.951 22.818,17.325 25.287,19.419C26.299,20.279 27.256,21.091 28.021,21.933C31.007,25.217 29.62,27.084 29.452,27.287L27.914,26.008C27.914,26.008 27.892,26.028 27.868,26.071C27.996,25.84 28.007,24.89 26.542,23.279C25.863,22.532 24.955,21.761 23.993,20.945C21.495,18.825 18.387,16.187 16.321,11.662C13.89,6.337 9.318,2.649 4.673,2.266C0.514,1.926 -3.334,4.192 -6.455,8.824C-13.733,19.628 -14.269,35.593 -12.516,45.981C-11.729,50.635 -9.492,54.061 -6.045,55.886C-2.485,57.773 2.25,57.789 6.308,55.931C9.873,54.299 11.776,51.84 13.455,49.671C14.755,47.992 15.983,46.405 17.769,45.434C19.143,44.688 20.639,44.123 22.086,43.578C24.271,42.752 26.53,41.9 26.679,40.888C26.76,40.343 27.271,39.974 27.815,40.045C28.361,40.126 28.738,40.634 28.658,41.181C28.336,43.356 25.767,44.326 22.792,45.449C21.408,45.97 19.977,46.51 18.724,47.192C17.308,47.961 16.255,49.321 15.037,50.896C13.216,53.247 11.153,55.912 7.141,57.749C4.87,58.789 2.406,59.308 0,59.308" style="fill:rgb(67,111,142);fill-rule:nonzero;"/>
            </g>
            <g transform="matrix(1,0,0,1,185.794,298.648)">
                <path d="M0,23.189C0.188,22.064 0.02,20.762 -0.408,19.629C-0.854,18.486 -1.562,17.438 -2.472,16.578C-4.363,14.899 -6.616,13.48 -8.413,11.526C-10.181,9.525 -11.22,7.085 -12.347,4.763C-12.917,3.603 -13.569,2.477 -14.429,1.512C-15.295,0.556 -16.391,-0.191 -17.6,-0.666C-16.377,-0.23 -15.248,0.485 -14.338,1.426C-13.435,2.377 -12.736,3.5 -12.125,4.648C-10.921,6.945 -9.803,9.326 -8.045,11.187C-6.254,13.016 -4.012,14.328 -1.963,16.027C0.055,17.81 1.347,20.535 0.98,23.387C0.945,23.662 0.694,23.855 0.42,23.82C0.146,23.785 -0.047,23.534 -0.012,23.26C-0.011,23.254 -0.01,23.249 -0.009,23.244L0,23.189Z" style="fill:rgb(67,111,142);fill-rule:nonzero;"/>
            </g>
            <g transform="matrix(1,0,0,1,186.25,346.956)">
                <path d="M0,-18.435C-0.632,-17.052 -1.609,-16.091 -2.703,-15.252C-3.788,-14.421 -5.047,-13.831 -6.267,-13.348C-8.646,-12.372 -10.718,-10.718 -12.52,-8.838C-14.325,-6.947 -15.892,-4.828 -17.475,-2.723C-18.259,-1.679 -19.174,-0.619 -20.427,-0.109C-21.652,0.417 -22.975,0.598 -24.275,0.774C-22.981,0.558 -21.664,0.332 -20.479,-0.223C-19.271,-0.761 -18.427,-1.806 -17.676,-2.872C-16.162,-5.022 -14.659,-7.199 -12.886,-9.178C-11.116,-11.145 -9.041,-12.926 -6.563,-14.037C-5.355,-14.561 -4.227,-15.139 -3.239,-15.945C-2.266,-16.713 -1.374,-17.732 -0.942,-18.77L-0.915,-18.834C-0.809,-19.089 -0.517,-19.209 -0.262,-19.104C-0.007,-18.997 0.113,-18.706 0.007,-18.451C0.005,-18.446 0.002,-18.44 0,-18.435" style="fill:rgb(67,111,142);fill-rule:nonzero;"/>
            </g>
            <g transform="matrix(1,0,0,1,215.404,218.118)">
                <path d="M0,16.745L-0.015,16.745L-6.926,16.646C-7.27,16.641 -7.587,16.46 -7.766,16.166C-11.584,9.906 -9.276,2.741 -9.176,2.438C-9.061,2.089 -8.762,1.832 -8.399,1.768L1.162,0.096C1.707,0 2.224,0.364 2.319,0.908C2.414,1.452 2.05,1.97 1.506,2.065L-7.432,3.629C-7.839,5.276 -8.751,10.243 -6.331,14.654L0.014,14.745C0.566,14.753 1.007,15.207 1,15.759C0.992,16.307 0.545,16.745 0,16.745" style="fill:rgb(67,111,142);fill-rule:nonzero;"/>
            </g>
            <g transform="matrix(1,0,0,1,212.016,219.464)">
                <path d="M0,14.851C-0.202,14.851 -0.392,14.728 -0.467,14.528C-3.588,6.306 -1.239,0.611 -1.137,0.372C-1.029,0.119 -0.735,0 -0.482,0.108C-0.229,0.216 -0.11,0.509 -0.217,0.764C-0.24,0.818 -2.501,6.35 0.467,14.174C0.565,14.432 0.436,14.721 0.177,14.818C0.119,14.841 0.059,14.851 0,14.851" style="fill:rgb(67,111,142);fill-rule:nonzero;"/>
            </g>
            <g transform="matrix(1,0,0,1,205.242,218.757)">
                <path d="M0,16.739C-1.211,16.739 -2.328,15.993 -2.783,14.848C-5.011,9.235 -3.927,4.363 -3.082,1.958C-2.638,0.694 -1.282,0 0.002,0.383L2.624,1.163C3.153,1.321 3.455,1.878 3.297,2.407C3.139,2.936 2.581,3.238 2.054,3.08L-0.568,2.3C-0.833,2.22 -1.104,2.359 -1.195,2.621C-1.947,4.762 -2.913,9.102 -0.924,14.11C-0.766,14.507 -0.369,14.771 0.049,14.738L3.434,13.99C3.968,13.869 4.506,14.212 4.625,14.752C4.745,15.291 4.404,15.824 3.864,15.944L0.413,16.705C0.375,16.714 0.337,16.72 0.299,16.723C0.199,16.734 0.099,16.739 0,16.739" style="fill:rgb(67,111,142);fill-rule:nonzero;"/>
            </g>
            <g transform="matrix(1,0,0,1,178.748,197.117)">
                <path d="M0,57.964C-2.101,57.964 -4.245,57.563 -6.258,56.75C-10.734,54.943 -14.019,51.343 -15.269,46.873C-17.989,37.147 -19.03,18.591 -12.831,7.789C-9.95,2.767 -5.542,0.001 -0.42,0L-0.417,0C5.123,0 10.753,3.322 13.594,8.267C15.846,12.187 18.879,14.255 21.556,16.08C22.657,16.831 23.697,17.54 24.547,18.302C27.85,21.266 26.659,23.265 26.512,23.483L24.853,22.367C24.853,22.367 24.833,22.388 24.813,22.433C24.917,22.192 24.832,21.245 23.211,19.791C22.461,19.117 21.519,18.475 20.429,17.732C17.716,15.882 14.34,13.581 11.86,9.263C9.364,4.919 4.431,2 -0.417,2L-0.42,2C-3.515,2.001 -7.879,3.178 -11.097,8.784C-16.39,18.009 -16.384,35.458 -13.343,46.334C-12.245,50.259 -9.463,53.3 -5.509,54.896C-1.511,56.508 3.048,56.291 6.394,54.327C9.775,52.342 11.419,49.703 12.869,47.375C13.992,45.572 15.053,43.869 16.731,42.722C18.021,41.84 19.453,41.127 20.837,40.437C22.927,39.395 25.088,38.317 25.134,37.296C25.159,36.744 25.652,36.322 26.178,36.342C26.729,36.367 27.157,36.834 27.132,37.386C27.033,39.582 24.575,40.808 21.729,42.226C20.406,42.886 19.037,43.569 17.859,44.374C16.528,45.283 15.619,46.742 14.567,48.432C12.995,50.956 11.212,53.817 7.407,56.052C5.246,57.32 2.658,57.964 0,57.964" style="fill:rgb(67,111,142);fill-rule:nonzero;"/>
            </g>
            <g transform="matrix(1,0,0,1,201.875,202.533)">
                <path d="M0,21.355C0.073,20.217 -0.227,18.939 -0.767,17.855C-1.326,16.763 -2.138,15.793 -3.13,15.029C-5.182,13.551 -7.567,12.367 -9.552,10.606C-11.514,8.794 -12.796,6.472 -14.153,4.277C-14.837,3.18 -15.6,2.127 -16.554,1.254C-17.513,0.391 -18.678,-0.241 -19.929,-0.592C-18.668,-0.282 -17.472,0.315 -16.472,1.16C-15.477,2.013 -14.667,3.059 -13.944,4.14C-12.513,6.303 -11.159,8.558 -9.221,10.231C-7.254,11.87 -4.89,12.946 -2.68,14.429C-0.491,15.999 1.07,18.578 0.995,21.453C0.988,21.73 0.758,21.947 0.482,21.94C0.207,21.933 -0.012,21.703 -0.004,21.427C-0.004,21.421 -0.004,21.416 -0.003,21.41L0,21.355Z" style="fill:rgb(67,111,142);fill-rule:nonzero;"/>
            </g>
            <g transform="matrix(1,0,0,1,203.007,251.346)">
                <path d="M0,-20.855C-0.488,-19.415 -1.364,-18.359 -2.367,-17.415C-3.361,-16.478 -4.554,-15.762 -5.719,-15.158C-7.986,-13.946 -9.88,-12.09 -11.482,-10.038C-13.086,-7.973 -14.429,-5.706 -15.792,-3.451C-16.465,-2.333 -17.268,-1.185 -18.462,-0.551C-19.629,0.096 -20.925,0.411 -22.201,0.718C-20.937,0.372 -19.649,0.013 -18.526,-0.659C-17.379,-1.317 -16.646,-2.442 -16.006,-3.579C-14.718,-5.871 -13.444,-8.189 -11.881,-10.338C-10.319,-12.474 -8.435,-14.457 -6.083,-15.813C-4.935,-16.457 -3.871,-17.147 -2.97,-18.049C-2.08,-18.912 -1.296,-20.016 -0.972,-21.092L-0.951,-21.16C-0.872,-21.424 -0.593,-21.573 -0.329,-21.494C-0.065,-21.414 0.085,-21.135 0.005,-20.871C0.004,-20.866 0.001,-20.86 0,-20.855" style="fill:rgb(67,111,142);fill-rule:nonzero;"/>
            </g>
            <g transform="matrix(1,0,0,1,211.078,123.517)">
                <path d="M0,15.916L-4.161,15.916C-4.498,15.916 -4.812,15.746 -4.998,15.464C-9.014,9.328 -6.937,2.093 -6.846,1.788C-6.744,1.443 -6.465,1.181 -6.116,1.098L-1.983,0.126C-1.446,0 -0.908,0.334 -0.781,0.871C-0.654,1.409 -0.988,1.947 -1.525,2.074L-5.061,2.905C-5.414,4.547 -6.181,9.566 -3.605,13.916L0,13.916C0.552,13.916 1,14.364 1,14.916C1,15.468 0.552,15.916 0,15.916" style="fill:rgb(67,111,142);fill-rule:nonzero;"/>
            </g>
            <g transform="matrix(1,0,0,1,203.63,123.58)">
                <path d="M0,16.689C-1.175,16.689 -2.269,15.987 -2.747,14.886C-5.155,9.347 -4.227,4.443 -3.459,2.013C-3.055,0.733 -1.724,0 -0.426,0.339L2.219,1.036C2.753,1.176 3.072,1.724 2.932,2.257C2.791,2.791 2.243,3.112 1.71,2.97L-0.935,2.274C-1.204,2.201 -1.468,2.35 -1.552,2.615C-2.235,4.779 -3.061,9.147 -0.913,14.089C-0.743,14.481 -0.34,14.725 0.079,14.686L3.438,13.83C3.973,13.694 4.518,14.018 4.654,14.553C4.79,15.088 4.466,15.632 3.931,15.769L0.506,16.641C0.469,16.65 0.431,16.657 0.393,16.663C0.261,16.68 0.13,16.689 0,16.689" style="fill:rgb(67,111,142);fill-rule:nonzero;"/>
            </g>
            <g transform="matrix(1,0,0,1,177.342,102.582)">
                <path d="M0,58.116C-1.931,58.116 -3.896,57.779 -5.764,57.095C-10.295,55.432 -13.694,51.939 -15.086,47.51C-18.116,37.877 -19.751,19.365 -13.9,8.368C-11.181,3.258 -6.864,0.352 -1.745,0.187C3.773,0 9.529,3.149 12.526,8.001C14.902,11.846 18,13.816 20.734,15.554C21.859,16.27 22.921,16.946 23.794,17.68C27.191,20.537 26.064,22.573 25.925,22.796L24.23,21.733C24.23,21.733 24.211,21.755 24.193,21.801C24.29,21.556 24.174,20.613 22.507,19.211C21.736,18.562 20.774,17.95 19.661,17.242C16.89,15.48 13.442,13.288 10.825,9.052C8.191,4.789 3.162,2.046 -1.681,2.186C-4.774,2.286 -9.099,3.602 -12.135,9.308C-17.131,18.698 -16.566,36.137 -13.178,46.91C-11.956,50.799 -9.078,53.748 -5.075,55.217C-1.028,56.701 3.524,56.337 6.804,54.268C10.12,52.176 11.678,49.485 13.053,47.112C14.118,45.274 15.124,43.538 16.764,42.338C18.026,41.415 19.434,40.656 20.795,39.922C22.851,38.814 24.976,37.668 24.989,36.645C24.997,36.097 25.443,35.658 25.989,35.658L26.002,35.658C26.555,35.666 26.997,36.119 26.989,36.672C26.96,38.87 24.543,40.173 21.745,41.682C20.442,42.385 19.096,43.111 17.945,43.952C16.644,44.904 15.782,46.392 14.784,48.115C13.293,50.688 11.604,53.604 7.871,55.959C5.612,57.385 2.844,58.116 0,58.116" style="fill:rgb(67,111,142);fill-rule:nonzero;"/>
            </g>
            <g transform="matrix(1,0,0,1,199.988,108.046)">
                <path d="M0,20.727C0.037,19.587 -0.304,18.319 -0.878,17.254C-1.472,16.179 -2.315,15.236 -3.331,14.504C-5.429,13.092 -7.851,11.986 -9.891,10.289C-11.91,8.541 -13.266,6.261 -14.692,4.11C-15.412,3.036 -16.208,2.008 -17.188,1.166C-18.174,0.334 -19.359,-0.261 -20.621,-0.571C-19.351,-0.302 -18.136,0.257 -17.109,1.069C-16.088,1.89 -15.246,2.91 -14.487,3.967C-12.988,6.082 -11.563,8.293 -9.572,9.904C-7.553,11.478 -5.156,12.479 -2.9,13.89C-0.662,15.389 0.981,17.917 0.998,20.793C1,21.069 0.777,21.294 0.501,21.296C0.225,21.298 0,21.075 -0.002,20.799L-0.002,20.782L0,20.727Z" style="fill:rgb(67,111,142);fill-rule:nonzero;"/>
            </g>
            <g transform="matrix(1,0,0,1,201.331,156.909)">
                <path d="M0,-21.573C-0.442,-20.117 -1.283,-19.035 -2.255,-18.058C-3.22,-17.09 -4.389,-16.337 -5.534,-15.696C-7.761,-14.412 -9.595,-12.496 -11.13,-10.393C-12.667,-8.279 -13.938,-5.969 -15.227,-3.673C-15.864,-2.533 -16.63,-1.36 -17.803,-0.689C-18.948,-0.004 -20.234,0.352 -21.5,0.699C-20.247,0.313 -18.971,-0.087 -17.87,-0.794C-16.745,-1.489 -16.048,-2.637 -15.446,-3.793C-14.231,-6.125 -13.032,-8.483 -11.539,-10.681C-10.046,-12.866 -8.226,-14.908 -5.919,-16.339C-4.791,-17.019 -3.751,-17.743 -2.878,-18.673C-2.017,-19.565 -1.269,-20.693 -0.979,-21.779L-0.96,-21.847C-0.89,-22.113 -0.616,-22.272 -0.349,-22.2C-0.083,-22.129 0.076,-21.856 0.004,-21.589C0.003,-21.584 0.001,-21.577 0,-21.573" style="fill:rgb(67,111,142);fill-rule:nonzero;"/>
            </g>
            <g transform="matrix(1,0,0,1,210.441,122.66)">
                <path d="M0,14.819C-0.196,14.819 -0.381,14.703 -0.461,14.511C-3.844,6.392 -1.678,0.626 -1.584,0.384C-1.484,0.127 -1.195,0 -0.938,0.099C-0.681,0.198 -0.553,0.488 -0.652,0.745C-0.673,0.801 -2.757,6.401 0.461,14.127C0.568,14.382 0.447,14.674 0.192,14.78C0.129,14.807 0.064,14.819 0,14.819" style="fill:rgb(67,111,142);fill-rule:nonzero;"/>
            </g>
            <g transform="matrix(1,0,0,1,329.852,332.519)">
                <path d="M0,147.372C-0.512,147.372 -0.948,146.981 -0.995,146.462L-13.223,11.367C-14.447,10.003 -21.388,2.8 -32.084,1.994C-33.782,3.578 -41.543,10.458 -48.851,11.09C-50.272,20.915 -64.029,116.421 -66.255,146.446C-66.296,146.997 -66.785,147.411 -67.326,147.369C-67.877,147.328 -68.291,146.849 -68.25,146.298C-65.909,114.721 -50.864,11.034 -50.713,9.991C-50.642,9.506 -50.23,9.143 -49.74,9.135C-42.21,9.006 -33.243,0.339 -33.153,0.251C-32.952,0.055 -32.674,-0.039 -32.396,-0.031C-19.481,0.726 -11.803,9.93 -11.482,10.321C-11.355,10.476 -11.278,10.666 -11.26,10.865L0.997,146.282C1.047,146.832 0.641,147.318 0.091,147.368C0.061,147.371 0.03,147.372 0,147.372" style="fill:rgb(67,111,142);fill-rule:nonzero;"/>
            </g>
            <g transform="matrix(1,0,0,1,298.46,362.423)">
                <path d="M0,-11.272C-3.107,-11.272 -5.636,-8.744 -5.636,-5.636C-5.636,-2.528 -3.107,0 0,0C3.108,0 5.636,-2.528 5.636,-5.636C5.636,-8.744 3.108,-11.272 0,-11.272M0,2C-4.21,2 -7.636,-1.425 -7.636,-5.636C-7.636,-9.846 -4.21,-13.272 0,-13.272C4.21,-13.272 7.636,-9.846 7.636,-5.636C7.636,-1.425 4.21,2 0,2" style="fill:rgb(67,111,142);fill-rule:nonzero;"/>
            </g>
        </g>
    </g>
</svg>
