<svg width="100%" height="100%" viewBox="0 0 540 540" version="1.1" xmlns="http://www.w3.org/2000/svg" xmlns:xlink="http://www.w3.org/1999/xlink" xml:space="preserve" xmlns:serif="http://www.serif.com/" style="fill-rule:evenodd;clip-rule:evenodd;stroke-linejoin:round;stroke-miterlimit:2;">
    <g transform="matrix(1.06389,0,0,1.06389,-40.9096,-35.564)">
        <g>
            <g>
                <g transform="matrix(1,0,0,1,251.055,78.0157)">
                    <path d="M0,71.391L-16.831,71.391C-26.78,71.391 -28.287,64.895 -28.347,64.619C-28.452,64.13 -28.18,63.639 -27.71,63.469C-27.238,63.3 -26.717,63.502 -26.483,63.944C-26.482,63.944 -26.298,64.263 -26.092,64.241C-25.915,64.223 -24.293,63.844 -21.781,56.146C-18.491,46.057 -9.861,16.463 -6.612,5.322L-6.183,3.85C-5.521,1.583 -3.437,0 -1.114,0L11.799,0C12.352,0 12.799,0.448 12.799,1C12.799,1.553 12.352,2 11.799,2L-1.114,2C-2.577,2 -3.842,2.969 -4.263,4.41L-4.692,5.882C-7.943,17.031 -16.579,46.647 -19.88,56.766C-21.75,62.495 -23.512,65.502 -25.381,66.121C-24.216,67.6 -21.783,69.391 -16.831,69.391L0,69.391C0.553,69.391 1,69.839 1,70.391C1,70.943 0.553,71.391 0,71.391" style="fill:rgb(67,111,142);fill-rule:nonzero;"/>
                </g>
                <g transform="matrix(1,0,0,1,224.282,133.112)">
                    <path d="M0,11.475C-0.318,11.475 -0.632,11.323 -0.825,11.041C-4.237,6.067 -3.499,1.122 -3.466,0.914C-3.379,0.37 -2.874,0 -2.321,0.084C-1.776,0.171 -1.405,0.682 -1.49,1.226C-1.501,1.3 -2.109,5.634 0.823,9.909C1.136,10.365 1.021,10.987 0.564,11.3C0.392,11.418 0.195,11.475 0,11.475" style="fill:rgb(67,111,142);fill-rule:nonzero;"/>
                </g>
                <g transform="matrix(1,0,0,1,230.224,102.409)">
                    <path d="M0,32.775L-5.481,32.775C-13.201,32.775 -14.575,28.088 -14.575,14.887C-14.575,1.12 -10.457,0 -5.481,0L9.386,0C9.938,0 10.386,0.447 10.386,1C10.386,1.552 9.938,2 9.386,2L-5.481,2C-9.13,2 -12.575,2 -12.575,14.887C-12.575,28.584 -10.891,30.775 -5.481,30.775L0,30.775C0.553,30.775 1,31.223 1,31.775C1,32.327 0.553,32.775 0,32.775" style="fill:rgb(67,111,142);fill-rule:nonzero;"/>
                </g>
                <g transform="matrix(1,0,0,1,293.596,147.392)">
                    <path d="M0,30.49C-0.15,30.49 -0.302,30.456 -0.445,30.385C-27.518,16.87 -39.732,25.838 -44.33,29.214C-45.45,30.037 -46.067,30.49 -46.729,30.49C-48.932,30.49 -51.014,30.242 -52.283,27.25C-54.964,20.934 -54.197,1.785 -54.163,0.973C-54.14,0.421 -53.647,0 -53.122,0.016C-52.57,0.039 -52.142,0.505 -52.165,1.057C-52.173,1.251 -52.948,20.565 -50.441,26.469C-49.677,28.272 -48.741,28.484 -46.814,28.49C-46.584,28.388 -46.018,27.971 -45.514,27.602C-40.647,24.028 -27.721,14.533 0.447,28.595C0.941,28.842 1.143,29.443 0.896,29.937C0.721,30.287 0.367,30.49 0,30.49" style="fill:rgb(67,111,142);fill-rule:nonzero;"/>
                </g>
                <g transform="matrix(1,0,0,1,246.478,47.4654)">
                    <path d="M0,128.706C0.283,128.26 0.609,127.589 0.889,127.001C1.17,126.387 1.448,125.766 1.704,125.131C2.226,123.866 2.7,122.573 3.161,121.275C4.071,118.671 4.888,116.025 5.652,113.363C7.183,108.036 8.496,102.639 9.738,97.226C12.159,86.381 14.194,75.443 16.04,64.473C17.877,53.502 19.498,42.492 20.894,31.453C22.27,20.411 23.487,9.345 24.313,-1.756C23.653,9.356 22.601,20.444 21.389,31.511C20.158,42.578 18.7,53.62 17.025,64.631C15.341,75.64 13.468,86.625 11.202,97.544C10.037,102.997 8.799,108.438 7.337,113.834C6.605,116.532 5.821,119.218 4.935,121.882C4.485,123.213 4.02,124.54 3.501,125.856C2.955,127.192 2.475,128.434 1.656,129.827C1.376,130.303 0.764,130.462 0.287,130.182C-0.188,129.902 -0.348,129.289 -0.068,128.813C-0.062,128.805 -0.058,128.796 -0.052,128.787L0,128.706Z" style="fill:rgb(67,111,142);fill-rule:nonzero;"/>
                </g>
                <g transform="matrix(1,0,0,1,353.175,78.0157)">
                    <path d="M0,71.391L-16.83,71.391C-17.383,71.391 -17.83,70.943 -17.83,70.391C-17.83,69.839 -17.383,69.391 -16.83,69.391L0,69.391C4.934,69.391 7.371,67.597 8.542,66.118C6.676,65.492 4.916,62.486 3.051,56.766C-0.245,46.666 -8.871,17.084 -12.119,5.947L-12.567,4.41C-12.988,2.969 -14.254,2 -15.717,2L-28.629,2C-29.182,2 -29.629,1.553 -29.629,1C-29.629,0.448 -29.182,0 -28.629,0L-15.717,0C-13.394,0 -11.309,1.583 -10.647,3.849L-10.199,5.388C-6.954,16.516 1.666,46.076 4.951,56.146C7.463,63.844 9.085,64.223 9.262,64.241C9.46,64.258 9.659,63.934 9.661,63.931C9.905,63.502 10.43,63.307 10.891,63.483C11.352,63.659 11.62,64.137 11.517,64.619C11.457,64.895 9.949,71.391 0,71.391" style="fill:rgb(67,111,142);fill-rule:nonzero;"/>
                </g>
                <g transform="matrix(1,0,0,1,363.119,133.126)">
                    <path d="M0,11.451C-0.192,11.451 -0.388,11.395 -0.559,11.278C-1.009,10.969 -1.124,10.353 -0.814,9.902C2.132,5.608 1.507,1.255 1.5,1.211C1.418,0.672 1.786,0.167 2.325,0.082C2.862,0 3.369,0.364 3.454,0.903C3.487,1.111 4.227,6.052 0.816,11.021C0.625,11.301 0.315,11.451 0,11.451" style="fill:rgb(67,111,142);fill-rule:nonzero;"/>
                </g>
                <g transform="matrix(1,0,0,1,362.658,102.409)">
                    <path d="M0,32.775L-5.481,32.775C-6.034,32.775 -6.481,32.327 -6.481,31.775C-6.481,31.223 -6.034,30.775 -5.481,30.775L0,30.775C5.409,30.775 7.094,28.584 7.094,14.887C7.094,2 3.648,2 0,2L-14.867,2C-15.42,2 -15.867,1.552 -15.867,1C-15.867,0.447 -15.42,0 -14.867,0L0,0C4.976,0 9.094,1.12 9.094,14.887C9.094,28.088 7.72,32.775 0,32.775" style="fill:rgb(67,111,142);fill-rule:nonzero;"/>
                </g>
                <g transform="matrix(1,0,0,1,342.035,33.3843)">
                    <path d="M0,138.831C-0.446,138.124 -0.776,137.348 -1.081,136.572C-1.394,135.796 -1.674,135.01 -1.95,134.222C-2.477,132.639 -2.953,131.041 -3.393,129.435C-4.282,126.226 -5.032,122.986 -5.74,119.739C-7.118,113.236 -8.399,106.718 -9.646,100.195C-12.126,87.145 -14.481,74.076 -16.745,60.991C-18.971,47.9 -21.135,34.799 -23.257,21.692L-24.839,11.86L-25.622,6.942L-25.721,6.328C-25.759,6.16 -25.774,6.025 -25.831,5.881C-25.925,5.599 -26.061,5.329 -26.251,5.1C-26.622,4.641 -27.154,4.301 -27.723,4.217C-28.004,4.171 -28.291,4.179 -28.57,4.237C-28.78,4.289 -29.317,4.47 -29.707,4.585C-30.554,4.824 -31.415,4.998 -32.281,5.122C-34.016,5.352 -35.764,5.364 -37.481,5.192C-40.933,4.837 -44.214,3.912 -47.387,2.421L-47.438,2.394L-47.489,2.361C-47.566,2.312 -47.776,2.21 -47.926,2.165C-48.088,2.111 -48.247,2.082 -48.39,2.075C-48.68,2.063 -48.883,2.14 -49.101,2.304L-49.164,2.352C-49.2,2.379 -49.242,2.404 -49.282,2.423C-52.454,3.916 -55.734,4.845 -59.187,5.204C-60.905,5.377 -62.654,5.367 -64.39,5.138C-65.257,5.015 -66.119,4.842 -66.968,4.604C-67.356,4.489 -67.897,4.308 -68.104,4.257C-68.381,4.2 -68.664,4.192 -68.943,4.239C-69.505,4.323 -70.032,4.66 -70.399,5.115C-70.588,5.342 -70.721,5.61 -70.813,5.889C-70.87,6.031 -70.885,6.165 -70.923,6.331L-71.021,6.946L-71.803,11.864L-73.382,21.697C-75.479,34.809 -77.722,47.896 -79.975,60.982C-82.243,74.066 -84.564,87.142 -87.033,100.193C-88.267,106.719 -89.523,113.243 -91.002,119.724C-91.722,122.968 -92.547,126.191 -93.404,129.405C-93.828,131.014 -94.294,132.613 -94.814,134.195C-95.349,135.769 -95.844,137.378 -96.669,138.831C-95.497,135.726 -94.983,132.431 -94.259,129.202C-93.58,125.959 -93.011,122.691 -92.372,119.438L-88.698,99.882C-86.306,86.831 -84.06,73.75 -81.865,60.661L-75.423,21.366L-73.835,11.539L-73.048,6.624L-72.95,6.01C-72.901,5.771 -72.854,5.492 -72.763,5.245C-72.595,4.739 -72.344,4.255 -72.005,3.839C-71.337,3.007 -70.371,2.392 -69.285,2.219C-68.746,2.129 -68.188,2.144 -67.653,2.26C-67.057,2.42 -66.814,2.517 -66.407,2.637C-65.657,2.847 -64.891,3.002 -64.114,3.113C-62.56,3.32 -60.969,3.333 -59.385,3.176C-56.234,2.865 -53.034,1.948 -50.205,0.617L-50.387,0.736C-49.824,0.266 -49.016,0 -48.299,0.05C-47.94,0.068 -47.604,0.138 -47.289,0.242C-46.962,0.356 -46.711,0.46 -46.362,0.679L-46.465,0.619C-43.637,1.952 -40.438,2.873 -37.285,3.187C-35.701,3.347 -34.109,3.335 -32.552,3.13C-31.775,3.019 -31.008,2.865 -30.257,2.655C-29.85,2.536 -29.604,2.438 -29.011,2.28C-28.479,2.165 -27.924,2.15 -27.388,2.241C-26.308,2.413 -25.347,3.026 -24.683,3.854C-24.346,4.268 -24.098,4.75 -23.931,5.253C-23.839,5.498 -23.793,5.776 -23.745,6.014L-23.647,6.628L-22.861,11.543L-21.276,21.371C-19.15,34.473 -16.982,47.568 -14.753,60.652C-12.554,73.741 -10.342,86.827 -7.962,99.881C-6.771,106.407 -5.546,112.927 -4.226,119.423L-2.283,129.172C-1.953,130.794 -1.632,132.419 -1.274,134.035C-0.928,135.654 -0.582,137.274 0,138.831" style="fill:rgb(67,111,142);fill-rule:nonzero;"/>
                </g>
                <g transform="matrix(1,0,0,1,340.653,149.349)">
                    <path d="M-46.849,28.522C-47.212,28.522 -47.562,28.322 -47.734,27.975C-47.979,27.486 -47.78,26.891 -47.291,26.647C-19.13,12.588 -6.207,22.079 -1.342,25.654C-0.836,26.024 -0.268,26.442 -0.038,26.543C1.896,26.537 2.834,26.326 3.604,24.516C6.11,18.609 5.335,-0.707 5.327,-0.901C5.304,-1.447 5.729,-1.908 6.274,-1.931C6.775,-1.964 7.28,-1.53 7.304,-0.984C7.338,-0.172 8.104,18.975 5.425,25.289C4.156,28.275 2.078,28.522 -0.121,28.522C-0.778,28.522 -1.395,28.07 -2.513,27.248C-7.111,23.871 -19.328,14.901 -46.408,28.418C-46.55,28.489 -46.7,28.522 -46.849,28.522" style="fill:rgb(67,111,142);fill-rule:nonzero;"/>
                </g>
                <g transform="matrix(1,0,0,1,339.266,46.3425)">
                    <path d="M0,130.95C-0.819,129.556 -1.299,128.315 -1.845,126.979C-2.364,125.663 -2.829,124.336 -3.278,123.005C-4.165,120.341 -4.949,117.655 -5.681,114.957C-7.144,109.561 -8.381,104.12 -9.546,98.667C-11.812,87.748 -13.685,76.762 -15.369,65.754C-17.044,54.742 -18.502,43.7 -19.732,32.634C-20.944,21.567 -21.997,10.479 -22.656,-0.633C-21.831,10.468 -20.613,21.534 -19.237,32.575C-17.842,43.615 -16.222,54.625 -14.384,65.596C-12.538,76.566 -10.503,87.504 -8.082,98.348C-6.84,103.762 -5.526,109.159 -3.996,114.486C-3.231,117.148 -2.415,119.794 -1.506,122.398C-1.045,123.696 -0.569,124.989 -0.048,126.254C0.208,126.888 0.486,127.51 0.768,128.124C1.047,128.712 1.372,129.383 1.656,129.829L1.706,129.906C2.002,130.372 1.865,130.99 1.399,131.287C0.934,131.583 0.315,131.446 0.019,130.98C0.013,130.971 0.005,130.959 0,130.95" style="fill:rgb(67,111,142);fill-rule:nonzero;"/>
                </g>
                <g transform="matrix(1,0,0,1,293.803,172.215)">
                    <path d="M0,-132.822C0.387,-121.754 0.646,-110.685 0.777,-99.616C0.937,-88.548 0.979,-77.479 1,-66.411C0.982,-55.343 0.939,-44.274 0.78,-33.205C0.649,-22.136 0.389,-11.068 0,0C-0.389,-11.068 -0.649,-22.136 -0.78,-33.205C-0.939,-44.274 -0.981,-55.343 -0.999,-66.411C-0.979,-77.479 -0.937,-88.548 -0.777,-99.616C-0.646,-110.685 -0.386,-121.754 0,-132.822" style="fill:rgb(67,111,142);fill-rule:nonzero;"/>
                </g>
                <g transform="matrix(1,0,0,1,259.049,169.243)">
                    <path d="M0,243.492C-0.044,243.492 -0.089,243.489 -0.133,243.483L-15.911,241.368C-16.377,241.305 -16.736,240.927 -16.775,240.459C-20.501,194.936 -1.19,3.194 -0.995,1.263C-0.938,0.714 -0.458,0.312 0.101,0.368C0.65,0.424 1.051,0.914 0.995,1.464C0.801,3.382 -18.27,192.74 -14.844,239.493L-0.92,241.36C0.231,225.564 13.675,40.512 14.559,0.977C14.571,0.433 15.017,0 15.559,0L15.581,0C16.133,0.013 16.57,0.47 16.559,1.022C15.639,42.17 1.144,240.566 0.997,242.565C0.978,242.84 0.845,243.095 0.631,243.268C0.451,243.414 0.229,243.492 0,243.492" style="fill:rgb(67,111,142);fill-rule:nonzero;"/>
                </g>
                <g transform="matrix(1,0,0,1,263.186,178.112)">
                    <path d="M0,229.608L0.01,229.608L0,229.608ZM-4.138,234.624C-4.398,234.624 -4.659,234.522 -4.855,234.32C-5.24,233.923 -5.23,233.291 -4.834,232.906L-0.955,229.141C-0.568,225.545 2.657,195.12 6.431,145.131C10.432,92.104 10.422,-3.06 10.421,-4.016C10.421,-4.568 10.868,-5.016 11.42,-5.016L11.421,-5.016C11.973,-5.016 12.421,-4.569 12.421,-4.017C12.422,-3.061 12.433,92.179 8.425,145.282C4.418,198.365 1.027,229.41 0.994,229.717C0.969,229.949 0.863,230.164 0.696,230.326L-3.441,234.341C-3.636,234.53 -3.887,234.624 -4.138,234.624" style="fill:rgb(67,111,142);fill-rule:nonzero;"/>
                </g>
                <g transform="matrix(1,0,0,1,345.539,172.322)">
                    <path d="M0,237.298L0.01,237.298L0,237.298ZM-15.778,240.413C-16.007,240.413 -16.229,240.335 -16.409,240.19C-16.623,240.016 -16.756,239.761 -16.775,239.486C-16.922,237.487 -31.417,39.091 -32.337,-2.056C-32.349,-2.609 -31.911,-3.066 -31.359,-3.078C-30.771,-3.115 -30.35,-2.654 -30.337,-2.101C-29.453,37.433 -16.01,222.485 -14.858,238.281L-0.935,236.414C2.491,189.666 -16.579,0.72 -16.773,-1.194C-16.829,-1.744 -16.429,-2.234 -15.879,-2.29C-15.313,-2.346 -14.839,-1.945 -14.783,-1.396C-14.588,0.531 4.723,191.858 0.997,237.38C0.958,237.848 0.599,238.227 0.133,238.289L-15.646,240.404C-15.689,240.41 -15.734,240.413 -15.778,240.413" style="fill:rgb(67,111,142);fill-rule:nonzero;"/>
                </g>
                <g transform="matrix(1,0,0,1,329.76,173.095)">
                    <path d="M0,239.64C-0.251,239.64 -0.502,239.546 -0.696,239.358L-4.834,235.342C-5.001,235.18 -5.106,234.965 -5.132,234.734C-5.165,234.426 -8.556,203.381 -12.563,150.298C-16.57,97.195 -16.56,1.955 -16.559,1C-16.559,0.448 -16.11,0 -15.559,0L-15.558,0C-15.006,0.001 -14.559,0.449 -14.559,1.001C-14.56,1.956 -14.57,97.12 -10.568,150.148C-6.795,200.136 -3.569,230.561 -3.183,234.158L0.696,237.922C1.093,238.307 1.103,238.94 0.718,239.336C0.521,239.538 0.261,239.64 0,239.64" style="fill:rgb(67,111,142);fill-rule:nonzero;"/>
                </g>
                <g transform="matrix(1,0,0,1,251.774,412.074)">
                    <path d="M0,16.04C0.849,16.085 1.9,16.164 3.223,16.264C9.143,16.709 20.16,17.539 42.631,17.539C65.101,17.539 76.118,16.709 82.038,16.264C83.36,16.164 84.412,16.085 85.261,16.04C88.723,15.858 91.538,13.112 91.811,9.652L92.668,-1.264C87.349,-0.426 66.037,2.685 43.101,2.685C41.58,2.648 7.286,1.793 -7.401,-1.191L-6.55,9.652C-6.277,13.112 -3.462,15.858 0,16.04M42.631,19.539C20.085,19.539 9.019,18.706 3.073,18.258C1.769,18.16 0.732,18.081 -0.105,18.038C-4.565,17.804 -8.193,14.266 -8.544,9.809L-9.501,-2.376C-9.525,-2.693 -9.397,-3.005 -9.156,-3.212C-8.914,-3.42 -8.588,-3.499 -8.277,-3.428C5.346,-0.256 42.748,0.676 43.125,0.685C69.293,0.685 93.355,-3.398 93.596,-3.439C93.895,-3.49 94.21,-3.4 94.438,-3.193C94.667,-2.985 94.786,-2.684 94.762,-2.376L93.805,9.809C93.454,14.266 89.826,17.804 85.366,18.038C84.528,18.081 83.492,18.16 82.188,18.258C76.242,18.706 65.176,19.539 42.631,19.539" style="fill:rgb(67,111,142);fill-rule:nonzero;"/>
                </g>
                <g transform="matrix(1,0,0,1,247.875,428.379)">
                    <path d="M0,112.621C-0.015,112.621 -0.03,112.621 -0.045,112.62C-0.597,112.596 -1.024,112.129 -1,111.577L3.857,0.992C3.881,0.44 4.348,0 4.9,0.037C5.452,0.061 5.88,0.528 5.855,1.08L0.998,111.665C0.975,112.202 0.532,112.621 0,112.621" style="fill:rgb(67,111,142);fill-rule:nonzero;"/>
                </g>
                <g transform="matrix(1,0,0,1,340.934,428.378)">
                    <path d="M0,112.622C-0.532,112.622 -0.975,112.203 -0.998,111.666L-5.855,1.081C-5.88,0.529 -5.452,0.062 -4.9,0.038C-4.35,0 -3.882,0.441 -3.857,0.993L1,111.578C1.024,112.13 0.597,112.597 0.045,112.621C0.03,112.622 0.015,112.622 0,112.622" style="fill:rgb(67,111,142);fill-rule:nonzero;"/>
                </g>
                <g transform="matrix(-1,0,0,1,577.786,-159.45)">
                    <rect x="274.607" y="348.725" width="28.572" height="2" style="fill:rgb(67,111,142);"/>
                </g>
                <g transform="matrix(-1,0,0,1,579.472,-110.36)">
                    <rect x="274.607" y="324.18" width="30.258" height="2" style="fill:rgb(67,111,142);"/>
                </g>
                <g transform="matrix(0.991778,0.127971,0.127971,-0.991778,307.284,199.816)">
                    <path d="M0.501,-0.029C0.138,2.425 -0.196,5.016 -0.493,7.675L0.501,7.785C0.796,5.139 1.129,2.56 1.49,0.118L0.501,-0.029Z" style="fill:rgb(67,111,142);fill-rule:nonzero;"/>
                </g>
                <g transform="matrix(1,0,0,1,307.55,182.049)">
                    <path d="M0,36.161C-0.913,36.161 -1.769,35.831 -2.347,35.256C-2.621,34.99 -2.828,34.659 -2.941,34.303C-5.994,24.946 -4.617,2.588 -4.603,2.367C-4.585,2.1 -4.516,1.834 -4.399,1.599C-3.958,0.639 -2.813,0 -1.536,0C-1.502,0 -1.469,0 -1.436,0.001C-0.188,0.047 0.905,0.724 1.29,1.685L0.362,2.057C0.121,1.457 -0.613,1.032 -1.467,1C-2.344,0.995 -3.207,1.4 -3.497,2.03C-3.561,2.16 -3.596,2.294 -3.604,2.433C-3.62,2.655 -4.985,24.812 -1.989,33.996C-1.925,34.199 -1.807,34.387 -1.646,34.542C-1.143,35.043 -0.214,35.275 0.523,35.104L0.636,35.091L0.636,35.489L1.004,35.968L0.743,36.055L0.748,36.078C0.511,36.133 0.259,36.161 0,36.161" style="fill:rgb(67,111,142);fill-rule:nonzero;"/>
                </g>
                <g transform="matrix(1,0,0,1,310.656,245.98)">
                    <path d="M0,-62.934C-1.037,-62.934 -1.881,-62.261 -1.881,-61.434L-1.881,-1.5C-1.881,-0.673 -1.037,0 0,0C1.038,0 1.882,-0.673 1.882,-1.5L1.882,-61.434C1.882,-62.261 1.038,-62.934 0,-62.934M0,1C-1.589,1 -2.881,-0.121 -2.881,-1.5L-2.881,-61.434C-2.881,-62.812 -1.589,-63.934 0,-63.934C1.589,-63.934 2.882,-62.812 2.882,-61.434L2.882,-1.5C2.882,-0.121 1.589,1 0,1" style="fill:rgb(67,111,142);fill-rule:nonzero;"/>
                </g>
                <g transform="matrix(1,0,0,1,306.046,243.752)">
                    <path d="M0,297.248C-0.553,297.248 -1,296.8 -1,296.248L-0.971,169.614L3.609,1C3.624,0.448 4.111,0 4.637,0.028C5.188,0.043 5.624,0.503 5.609,1.055L1.029,169.642L1,296.248C1,296.801 0.552,297.248 0,297.248" style="fill:rgb(67,111,142);fill-rule:nonzero;"/>
                </g>
                <g transform="matrix(1,0,0,1,283.554,271.732)">
                    <path d="M0,269.268L-0.015,269.268C-0.566,269.26 -1.008,268.806 -1,268.253L0.847,141.79L-2.213,1.022C-2.225,0.47 -1.787,0.013 -1.234,0C-0.699,0.026 -0.225,0.427 -0.213,0.979L2.847,141.784L1,268.283C0.992,268.83 0.546,269.268 0,269.268" style="fill:rgb(67,111,142);fill-rule:nonzero;"/>
                </g>
                <g transform="matrix(-1,0,0,1,552.54,-66.954)">
                    <rect x="273.993" y="302.477" width="4.554" height="2" style="fill:rgb(67,111,142);"/>
                </g>
                <g transform="matrix(-1,0,0,1,596.942,-66.954)">
                    <rect x="288.782" y="302.477" width="19.378" height="2" style="fill:rgb(67,111,142);"/>
                </g>
                <g transform="matrix(-1,0,0,1,627.854,-66.954)">
                    <rect x="313.038" y="302.477" width="1.778" height="2" style="fill:rgb(67,111,142);"/>
                </g>
                <g transform="matrix(-1,0,0,1,552.231,-16.85)">
                    <rect x="273.428" y="277.425" width="5.375" height="2" style="fill:rgb(67,111,142);"/>
                </g>
                <g transform="matrix(-1,0,0,1,604.951,-16.85)">
                    <rect x="289.569" y="277.425" width="25.813" height="2" style="fill:rgb(67,111,142);"/>
                </g>
                <g transform="matrix(-0.688382,-0.725349,-0.725349,0.688382,311.553,305.944)">
                    <rect x="-0.802" y="0.346" width="0.995" height="0.101" style="fill:rgb(67,111,142);"/>
                </g>
                <g transform="matrix(1,0,0,1,326.496,306.307)">
                    <path d="M0,234.693C-0.537,234.693 -0.981,234.265 -0.998,233.724C-1.027,232.822 -3.832,143.356 -3.829,131.33C-3.824,117.346 -5.734,105.709 -5.754,105.592C-5.761,105.553 -5.765,105.514 -5.767,105.475C-7.628,65.456 -10.921,4.759 -12.362,1.572C-12.583,1.084 -12.393,0.479 -11.913,0.238C-11.436,0 -10.863,0.149 -10.604,0.62C-8.526,4.371 -4.265,94.723 -3.771,105.325C-3.621,106.258 -1.824,117.698 -1.829,131.33C-1.832,143.326 0.972,232.759 1,233.662C1.018,234.214 0.584,234.675 0.032,234.693L0,234.693Z" style="fill:rgb(67,111,142);fill-rule:nonzero;"/>
                </g>
                <g transform="matrix(-1,0,0,1,577.705,80.346)">
                    <rect x="271.482" y="228.827" width="34.741" height="2" style="fill:rgb(67,111,142);"/>
                </g>
                <g transform="matrix(-1,0,0,1,634.619,124.75)">
                    <rect x="315.705" y="206.625" width="3.209" height="2" style="fill:rgb(67,111,142);"/>
                </g>
                <g transform="matrix(-1,0,0,1,577.342,124.75)">
                    <rect x="269.919" y="206.625" width="37.504" height="2" style="fill:rgb(67,111,142);"/>
                </g>
                <g transform="matrix(1,0,0,1,260.931,359.777)">
                    <path d="M0,181.223C-0.02,181.223 -0.038,181.222 -0.058,181.221C-0.609,181.19 -1.03,180.718 -0.999,180.166L6.238,52.69C6.247,52.388 7.269,19.858 7.415,9.066C7.511,1.991 8.664,0.669 9.78,0.31C10.748,0 11.62,0.609 12.075,1.224C12.404,1.668 12.31,2.294 11.866,2.622C11.424,2.951 10.804,2.857 10.474,2.421C10.442,2.381 10.396,2.335 10.353,2.297C10.112,2.649 9.483,4.046 9.415,9.093C9.269,19.903 8.246,52.451 8.236,52.778L0.997,180.28C0.967,180.812 0.526,181.223 0,181.223" style="fill:rgb(67,111,142);fill-rule:nonzero;"/>
                </g>
                <g transform="matrix(-1,0,0,1,539.522,188.224)">
                    <rect x="267.319" y="174.888" width="4.884" height="2" style="fill:rgb(67,111,142);"/>
                </g>
                <g transform="matrix(-1,0,0,1,601.853,188.224)">
                    <rect x="280.363" y="174.888" width="41.127" height="2" style="fill:rgb(67,111,142);"/>
                </g>
                <g transform="matrix(-1,0,0,1,535.543,234.256)">
                    <rect x="265.241" y="151.872" width="5.061" height="2" style="fill:rgb(67,111,142);"/>
                </g>
                <g transform="matrix(-1,0,0,1,601.852,234.256)">
                    <rect x="278.285" y="151.872" width="45.282" height="2" style="fill:rgb(67,111,142);"/>
                </g>
                <g transform="matrix(1,0,0,1,281.326,274.029)">
                    <path d="M0,-42.398C-0.994,-42.398 -1.856,-41.695 -1.981,-40.735C-3.575,-28.48 -1.233,-2.651 -1.133,-1.557C-1.037,-0.532 -0.04,0.28 1.033,0.165C1.589,0.118 2.082,-0.134 2.426,-0.545C2.745,-0.926 2.896,-1.402 2.852,-1.886C2.753,-2.986 0.475,-28.629 1.988,-40.272C2.052,-40.754 1.918,-41.235 1.614,-41.627C1.285,-42.049 0.802,-42.317 0.253,-42.383C0.168,-42.393 0.083,-42.398 0,-42.398M0.856,1.172C-0.706,1.172 -1.989,0.039 -2.129,-1.465C-2.229,-2.564 -4.581,-28.5 -2.974,-40.864C-2.768,-42.446 -1.262,-43.57 0.372,-43.376C1.187,-43.278 1.909,-42.876 2.403,-42.241C2.873,-41.637 3.078,-40.892 2.98,-40.143C1.48,-28.607 3.749,-3.071 3.847,-1.99C3.917,-1.226 3.684,-0.49 3.192,0.097C2.676,0.713 1.94,1.091 1.121,1.161C1.035,1.168 0.946,1.172 0.856,1.172" style="fill:rgb(67,111,142);fill-rule:nonzero;"/>
                </g>
                <g transform="matrix(1,0,0,1,286.32,265.472)">
                    <path d="M0,-33.841C-1.113,-33.841 -2.01,-32.953 -2.021,-31.862C-2.03,-31.028 -2.226,-11.341 -1.242,-1.795C-1.129,-0.703 -0.151,0.106 0.953,-0.01C2.05,-0.123 2.851,-1.108 2.737,-2.205C1.772,-11.566 1.976,-31.627 1.979,-31.822C1.984,-32.354 1.781,-32.859 1.408,-33.24C1.034,-33.622 0.534,-33.835 0,-33.841M0.745,1C-0.796,1 -2.078,-0.157 -2.236,-1.692C-3.226,-11.294 -3.03,-31.037 -3.021,-31.873C-3.004,-33.509 -1.658,-34.841 -0.022,-34.841C0.812,-34.833 1.562,-34.512 2.122,-33.94C2.683,-33.367 2.987,-32.611 2.979,-31.809C2.976,-31.613 2.773,-11.614 3.731,-2.307C3.901,-0.662 2.7,0.815 1.056,0.985C0.95,0.995 0.847,1 0.745,1" style="fill:rgb(67,111,142);fill-rule:nonzero;"/>
                </g>
                <g transform="matrix(1,0,0,1,312.238,334.595)">
                    <path d="M0,-27.763C-0.069,-27.763 -0.14,-27.758 -0.21,-27.748C-0.604,-27.692 -0.956,-27.484 -1.196,-27.162C-1.436,-26.842 -1.537,-26.448 -1.479,-26.051C-1.46,-25.917 0.456,-12.518 -0.153,-1.411C-0.175,-1.012 -0.04,-0.627 0.228,-0.328C0.495,-0.03 0.863,0.146 1.263,0.169L1.347,0.171C2.142,0.171 2.799,-0.452 2.843,-1.247C3.463,-12.556 1.57,-25.914 1.489,-26.477C1.383,-27.223 0.736,-27.763 0,-27.763M1.347,1.171L1.209,1.167C0.541,1.131 -0.071,0.837 -0.517,0.339C-0.963,-0.159 -1.188,-0.799 -1.151,-1.466C-0.558,-12.298 -2.45,-25.775 -2.47,-25.909C-2.564,-26.57 -2.396,-27.228 -1.996,-27.762C-1.596,-28.296 -1.012,-28.643 -0.351,-28.739C1.011,-28.934 2.285,-27.979 2.479,-26.618C2.561,-26.052 4.467,-12.599 3.841,-1.193C3.769,0.133 2.673,1.171 1.347,1.171" style="fill:rgb(67,111,142);fill-rule:nonzero;"/>
                </g>
                <g transform="matrix(1,0,0,1,308.042,334.977)">
                    <path d="M0,-27.768C-0.069,-27.768 -0.14,-27.763 -0.21,-27.753C-0.604,-27.697 -0.956,-27.489 -1.196,-27.167C-1.436,-26.847 -1.537,-26.453 -1.479,-26.056C-1.46,-25.922 0.456,-12.523 -0.153,-1.416C-0.198,-0.59 0.437,0.118 1.263,0.164L1.347,0.166C2.142,0.166 2.799,-0.457 2.843,-1.252C3.463,-12.561 1.57,-25.919 1.489,-26.482C1.383,-27.228 0.737,-27.768 0,-27.768M1.347,1.166L1.209,1.162C0.541,1.126 -0.071,0.832 -0.517,0.334C-0.963,-0.164 -1.188,-0.804 -1.151,-1.471C-0.558,-12.303 -2.45,-25.78 -2.47,-25.914C-2.564,-26.575 -2.396,-27.233 -1.996,-27.767C-1.596,-28.301 -1.012,-28.648 -0.351,-28.744C1.015,-28.934 2.285,-27.984 2.479,-26.623C2.561,-26.057 4.467,-12.604 3.841,-1.198C3.769,0.128 2.673,1.166 1.347,1.166" style="fill:rgb(67,111,142);fill-rule:nonzero;"/>
                </g>
                <g transform="matrix(1,0,0,1,274.605,391.114)">
                    <path d="M0,-30.537C-0.712,-30.537 -1.345,-30.072 -1.476,-29.407C-1.579,-28.876 -4.016,-16.207 -3.806,-1.158C-3.795,-0.412 -3.123,0.194 -2.307,0.194L-2.279,0.194C-1.879,0.19 -1.501,0.038 -1.22,-0.231C-0.948,-0.492 -0.801,-0.834 -0.806,-1.193C-1.011,-15.821 1.376,-28.392 1.478,-28.921C1.544,-29.262 1.471,-29.606 1.271,-29.895C1.046,-30.223 0.693,-30.441 0.278,-30.513C0.185,-30.529 0.092,-30.537 0,-30.537M-2.273,1.194L-2.307,1.194C-3.666,1.194 -4.787,0.146 -4.806,-1.144C-5.018,-16.296 -2.562,-29.063 -2.457,-29.6C-2.205,-30.879 -0.906,-31.731 0.448,-31.499C1.12,-31.383 1.721,-31.006 2.094,-30.464C2.448,-29.95 2.578,-29.336 2.459,-28.732C2.358,-28.208 -0.009,-15.734 0.194,-1.207C0.203,-0.567 -0.054,0.035 -0.527,0.489C-0.992,0.936 -1.612,1.187 -2.273,1.194Z" style="fill:rgb(67,111,142);fill-rule:nonzero;"/>
                </g>
                <g transform="matrix(1,0,0,1,278.598,391.116)">
                    <path d="M0,-30.539C-0.713,-30.539 -1.344,-30.074 -1.475,-29.409C-1.578,-28.878 -4.016,-16.204 -3.806,-1.16C-3.795,-0.414 -3.122,0.192 -2.306,0.192L-2.279,0.192C-1.865,0.188 -1.465,0.02 -1.185,-0.268C-0.936,-0.523 -0.801,-0.853 -0.806,-1.195C-1.011,-15.821 1.377,-28.394 1.479,-28.923C1.545,-29.263 1.472,-29.608 1.271,-29.897C1.047,-30.225 0.694,-30.443 0.279,-30.515C0.186,-30.531 0.092,-30.539 0,-30.539M-2.273,1.192L-2.306,1.192C-3.666,1.192 -4.787,0.144 -4.806,-1.146C-5.018,-16.293 -2.561,-29.065 -2.456,-29.602C-2.204,-30.882 -0.904,-31.731 0.449,-31.501C1.121,-31.385 1.721,-31.008 2.095,-30.465C2.449,-29.952 2.579,-29.337 2.46,-28.733C2.359,-28.21 -0.009,-15.733 0.194,-1.209C0.203,-0.6 -0.032,-0.018 -0.468,0.43C-0.932,0.906 -1.59,1.184 -2.273,1.192Z" style="fill:rgb(67,111,142);fill-rule:nonzero;"/>
                </g>
                <g transform="matrix(1,0,0,1,280.668,271.744)">
                    <path d="M0,1.046C0.291,0.463 0.929,0.04 1.631,0.006C1.978,0 2.336,0.061 2.626,0.241C2.925,0.4 3.167,0.633 3.347,0.904C2.742,0.659 2.203,0.47 1.654,0.505C1.104,0.519 0.57,0.742 0,1.046" style="fill:rgb(67,111,142);fill-rule:nonzero;"/>
                </g>
                <g transform="matrix(1,0,0,1,308.983,243.735)">
                    <path d="M0,1.045C0.29,0.462 0.928,0.04 1.631,0.005C1.977,0 2.336,0.06 2.625,0.241C2.924,0.4 3.166,0.633 3.347,0.903C2.741,0.659 2.203,0.469 1.654,0.504C1.104,0.519 0.569,0.741 0,1.045" style="fill:rgb(67,111,142);fill-rule:nonzero;"/>
                </g>
            </g>
            <g>
                <g>
                    <g transform="matrix(1,0,0,1,395.327,301.516)">
                        <path d="M0,39.267C-0.497,39.267 -0.963,39.04 -1.27,38.643C-1.775,37.987 -2.525,37.278 -3.246,37.606C-4.061,37.984 -5.038,37.686 -5.516,36.912C-6.272,35.683 -8.562,32.827 -13.453,32.827L-51.817,32.827C-52.37,32.827 -52.817,32.379 -52.817,31.827C-52.817,31.274 -52.37,30.827 -51.817,30.827L-13.453,30.827C-7.737,30.827 -4.924,34.132 -3.905,35.715C-3.168,35.431 -1.663,35.205 -0.064,36.967C1.207,34.589 3.704,31.15 7.506,31.15C9.733,31.15 11.363,32.138 12.493,33.382L12.493,5.936C11.363,7.18 9.733,8.168 7.506,8.168C3.704,8.168 1.207,4.728 -0.064,2.351C-1.662,4.112 -3.169,3.883 -3.905,3.603C-4.924,5.186 -7.737,8.492 -13.453,8.492L-53.339,8.492C-53.892,8.492 -54.339,8.044 -54.339,7.492C-54.339,6.939 -53.892,6.492 -53.339,6.492L-13.453,6.492C-8.562,6.492 -6.272,3.635 -5.516,2.407C-5.037,1.631 -4.06,1.335 -3.246,1.712C-2.534,2.039 -1.775,1.332 -1.27,0.676C-0.931,0.235 -0.395,0 0.162,0.06C0.729,0.116 1.217,0.453 1.47,0.962C2.248,2.527 4.395,6.168 7.506,6.168C11.427,6.168 12.477,1.95 12.52,1.77C12.637,1.276 13.107,0.939 13.609,1.007C14.113,1.066 14.493,1.492 14.493,1.998L14.493,37.32C14.493,37.829 14.111,38.255 13.606,38.313C13.114,38.377 12.635,38.041 12.519,37.545C12.477,37.369 11.427,33.15 7.506,33.15C4.395,33.15 2.248,36.791 1.47,38.357C1.217,38.866 0.729,39.203 0.162,39.258C0.108,39.264 0.054,39.267 0,39.267" style="fill:rgb(67,111,142);fill-rule:nonzero;"/>
                    </g>
                    <g transform="matrix(1,0,0,1,391.153,334.845)">
                        <path d="M0,-28.476C0.206,-26.103 0.303,-23.73 0.383,-21.357C0.475,-18.984 0.487,-16.611 0.5,-14.238C0.488,-11.865 0.475,-9.493 0.385,-7.12L0.245,-3.56C0.162,-2.373 0.113,-1.187 0,0C-0.113,-1.187 -0.162,-2.373 -0.245,-3.56L-0.385,-7.12C-0.476,-9.493 -0.488,-11.865 -0.5,-14.238C-0.487,-16.611 -0.475,-18.984 -0.383,-21.357C-0.303,-23.73 -0.206,-26.103 0,-28.476" style="fill:rgb(67,111,142);fill-rule:nonzero;"/>
                    </g>
                    <g transform="matrix(-1,0,0,1,398.315,331.689)">
                        <path d="M-0.001,-22.164C-0.394,-18.471 -0.484,-14.776 -0.5,-11.082C-0.486,-7.389 -0.397,-3.694 -0.001,0C0.395,-3.694 0.485,-7.389 0.499,-11.082C0.483,-14.776 0.393,-18.471 -0.001,-22.164" style="fill:rgb(67,111,142);fill-rule:nonzero;"/>
                    </g>
                    <g transform="matrix(1,0,0,1,395.009,336.545)">
                        <path d="M0,-31.876C0.206,-29.22 0.303,-26.564 0.383,-23.907C0.475,-21.251 0.487,-18.595 0.5,-15.938C0.488,-13.281 0.476,-10.625 0.385,-7.969L0.245,-3.984C0.162,-2.656 0.113,-1.328 0,0C-0.113,-1.328 -0.162,-2.656 -0.245,-3.984L-0.385,-7.969C-0.476,-10.625 -0.488,-13.281 -0.5,-15.938C-0.487,-18.595 -0.475,-21.251 -0.383,-23.907C-0.303,-26.564 -0.206,-29.22 0,-31.876" style="fill:rgb(67,111,142);fill-rule:nonzero;"/>
                    </g>
                    <g transform="matrix(1,0,0,1,408.82,341.267)">
                        <path d="M0,-41.788L0.01,-41.788L0,-41.788ZM21.399,-50.695C16.802,-50.695 12.867,-50.088 9.949,-49.427C2.464,-47.732 1.033,-41.82 0.976,-41.569C0.972,-41.55 0.965,-41.524 0.959,-41.505C0.953,-41.484 0.344,-39.367 0.298,-35.973C0.198,-28.716 0.362,-16.517 0.461,-9.227C0.497,-6.515 0.524,-4.51 0.524,-3.739C0.524,-0.246 2.916,6.824 11.967,8.576C18.472,9.835 40.605,13.004 52.303,0.884C58.588,-5.629 61.937,-15.107 61.041,-23.853C60.511,-29.029 58.256,-36.307 50.526,-41.584C40.057,-48.732 29.659,-50.695 21.399,-50.695M25.708,11.894C19.552,11.894 14.279,11.061 11.586,10.539C1.254,8.54 -1.476,0.325 -1.476,-3.739C-1.476,-4.506 -1.503,-6.501 -1.539,-9.201C-1.637,-16.5 -1.802,-28.716 -1.702,-36C-1.654,-39.498 -1.056,-41.73 -0.969,-42.039C-0.822,-42.66 0.968,-49.444 9.508,-51.378C17.981,-53.297 34.729,-54.792 51.653,-43.236C58.274,-38.716 62.208,-32.084 63.03,-24.058C63.984,-14.741 60.425,-4.652 53.742,2.273C46.287,9.997 34.994,11.894 25.708,11.894" style="fill:rgb(67,111,142);fill-rule:nonzero;"/>
                    </g>
                    <g transform="matrix(1,0,0,1,412.393,344.57)">
                        <path d="M0,-44.854C-0.833,-40.177 -1.162,-35.302 -1.009,-30.511C-0.832,-25.716 -0.12,-20.909 1.574,-16.453C2.439,-14.239 3.563,-12.128 4.994,-10.249C6.442,-8.359 8.146,-6.666 10.036,-5.223C13.816,-2.318 18.456,-0.604 23.223,-0.113C27.997,0.394 32.887,-0.236 37.464,-1.751C39.743,-2.528 41.982,-3.494 44.007,-4.79C46.038,-6.083 47.863,-7.699 49.425,-9.54C52.556,-13.217 54.63,-17.805 55.278,-22.618C55.952,-27.437 55.147,-32.403 53.293,-36.904C55.219,-32.435 56.114,-27.462 55.514,-22.587C54.938,-17.72 52.916,-13.033 49.788,-9.236C48.228,-7.334 46.392,-5.653 44.33,-4.293C42.267,-2.927 40.013,-1.906 37.697,-1.072C33.055,0.555 28.068,1.293 23.129,0.858C18.2,0.439 13.319,-1.257 9.3,-4.235C7.291,-5.713 5.476,-7.457 3.924,-9.41C2.364,-11.383 1.139,-13.596 0.19,-15.904C-1.668,-20.548 -2.482,-25.506 -2.751,-30.433C-2.99,-35.38 -2.754,-40.294 -1.964,-45.23C-1.877,-45.775 -1.364,-46.147 -0.819,-46.06C-0.273,-45.972 0.098,-45.459 0.011,-44.915C0.01,-44.91 0.009,-44.906 0.009,-44.902L0,-44.854Z" style="fill:rgb(67,111,142);fill-rule:nonzero;"/>
                    </g>
                </g>
                <g id="E_5-fill">
                    <g>
                        <g transform="matrix(1,0,0,1,343.509,309.008)">
                            <path d="M0,24.335L38.364,24.335C43.718,24.335 46.258,27.442 47.153,28.896C47.363,29.236 47.788,29.375 48.151,29.207C48.822,28.897 49.99,28.789 51.34,30.54C51.62,30.903 52.188,30.831 52.392,30.42C53.328,28.536 55.696,24.658 59.323,24.658C64.113,24.658 65.311,29.828 65.311,29.828L65.311,-5.493C65.311,-5.493 64.113,-0.323 59.323,-0.323C55.696,-0.323 53.328,-4.201 52.392,-6.085C52.188,-6.496 51.62,-6.568 51.34,-6.205C49.99,-4.454 48.822,-4.562 48.151,-4.872C47.788,-5.04 47.363,-4.901 47.153,-4.561C46.258,-3.107 43.718,-0 38.364,-0L-1.521,-0" style="fill:rgb(67,111,142);fill-rule:nonzero;"/>
                        </g>
                        <g transform="matrix(1,0,0,1,408.82,342.443)">
                            <path d="M0,-42.965C0,-42.965 -0.653,-40.762 -0.702,-37.163C-0.839,-27.172 -0.476,-7.737 -0.476,-4.916C-0.476,-1.08 2.134,6.514 11.776,8.381C21.419,10.248 41.823,12.005 53.022,0.401C64.404,-11.393 66.716,-32.918 51.09,-43.587C34.418,-54.97 17.971,-53.445 9.729,-51.579C1.485,-49.713 0,-42.965 0,-42.965" style="fill:rgb(67,111,142);fill-rule:nonzero;"/>
                        </g>
                        <g transform="matrix(1,0,0,1,412.393,344.57)">
                            <path d="M0,-44.854C-0.833,-40.177 -1.162,-35.302 -1.009,-30.511C-0.832,-25.716 -0.12,-20.909 1.574,-16.453C2.439,-14.239 3.563,-12.128 4.994,-10.249C6.442,-8.359 8.146,-6.666 10.036,-5.223C13.816,-2.318 18.456,-0.604 23.223,-0.113C27.997,0.394 32.887,-0.236 37.464,-1.751C39.743,-2.528 41.982,-3.494 44.007,-4.79C46.038,-6.083 47.863,-7.699 49.425,-9.54C52.556,-13.217 54.63,-17.805 55.278,-22.618C55.952,-27.437 55.147,-32.403 53.293,-36.904C55.219,-32.435 56.114,-27.462 55.514,-22.587C54.938,-17.72 52.916,-13.033 49.788,-9.236C48.228,-7.334 46.392,-5.653 44.33,-4.293C42.267,-2.927 40.013,-1.906 37.697,-1.072C33.055,0.555 28.068,1.293 23.129,0.858C18.2,0.439 13.319,-1.257 9.3,-4.235C7.291,-5.713 5.476,-7.457 3.924,-9.41C2.364,-11.383 1.139,-13.596 0.19,-15.904C-1.668,-20.548 -2.482,-25.506 -2.751,-30.433C-2.99,-35.38 -2.754,-40.294 -1.964,-45.23C-1.877,-45.775 -1.364,-46.147 -0.819,-46.06C-0.273,-45.972 0.098,-45.459 0.011,-44.915C0.01,-44.91 0.009,-44.906 0.009,-44.902L0,-44.854Z" style="fill:white;fill-rule:nonzero;"/>
                        </g>
                        <g transform="matrix(1,0,0,1,391.153,334.845)">
                            <path d="M0,-28.476C0.206,-26.103 0.303,-23.73 0.383,-21.357C0.475,-18.984 0.487,-16.611 0.5,-14.238C0.488,-11.865 0.475,-9.493 0.385,-7.12L0.245,-3.56C0.162,-2.373 0.113,-1.187 0,0C-0.113,-1.187 -0.162,-2.373 -0.245,-3.56L-0.385,-7.12C-0.476,-9.493 -0.488,-11.865 -0.5,-14.238C-0.487,-16.611 -0.475,-18.984 -0.383,-21.357C-0.303,-23.73 -0.206,-26.103 0,-28.476" style="fill:white;fill-rule:nonzero;"/>
                        </g>
                        <g transform="matrix(-1,0,0,1,398.315,331.689)">
                            <path d="M-0.001,-22.164C-0.394,-18.471 -0.484,-14.776 -0.5,-11.082C-0.486,-7.389 -0.397,-3.694 -0.001,0C0.395,-3.694 0.485,-7.389 0.499,-11.082C0.483,-14.776 0.393,-18.471 -0.001,-22.164" style="fill:white;fill-rule:nonzero;"/>
                        </g>
                        <g transform="matrix(1,0,0,1,395.009,336.545)">
                            <path d="M0,-31.876C0.206,-29.22 0.303,-26.564 0.383,-23.907C0.475,-21.251 0.487,-18.595 0.5,-15.938C0.488,-13.281 0.476,-10.625 0.385,-7.969L0.245,-3.984C0.162,-2.656 0.113,-1.328 0,0C-0.113,-1.328 -0.162,-2.656 -0.245,-3.984L-0.385,-7.969C-0.476,-10.625 -0.488,-13.281 -0.5,-15.938C-0.487,-18.595 -0.475,-21.251 -0.383,-23.907C-0.303,-26.564 -0.206,-29.22 0,-31.876" style="fill:white;fill-rule:nonzero;"/>
                        </g>
                    </g>
                </g>
            </g>
            <g>
                <g>
                    <g transform="matrix(1,0,0,1,387.328,181.358)">
                        <path d="M0,39.263C-0.497,39.263 -0.963,39.036 -1.27,38.639C-1.775,37.983 -2.532,37.273 -3.246,37.603C-4.067,37.98 -5.04,37.681 -5.516,36.908C-6.272,35.68 -8.562,32.823 -13.453,32.823L-53.339,32.823C-53.892,32.823 -54.339,32.375 -54.339,31.823C-54.339,31.271 -53.892,30.823 -53.339,30.823L-13.453,30.823C-7.737,30.823 -4.924,34.129 -3.905,35.712C-3.167,35.43 -1.662,35.201 -0.063,36.964C1.206,34.588 3.702,31.146 7.505,31.146C9.733,31.146 11.363,32.135 12.493,33.379L12.493,5.932C11.363,7.177 9.733,8.165 7.505,8.165C3.703,8.165 1.207,4.724 -0.063,2.347C-1.661,4.109 -3.167,3.881 -3.905,3.599C-4.925,5.183 -7.739,8.488 -13.453,8.488L-55.988,8.488C-56.541,8.488 -56.988,8.04 -56.988,7.488C-56.988,6.936 -56.541,6.488 -55.988,6.488L-13.453,6.488C-8.562,6.488 -6.272,3.631 -5.516,2.403C-5.04,1.63 -4.067,1.329 -3.246,1.708C-2.529,2.039 -1.775,1.329 -1.27,0.673C-0.93,0.231 -0.385,0 0.16,0.056C0.726,0.111 1.215,0.448 1.469,0.956C2.248,2.523 4.394,6.165 7.505,6.165C11.426,6.165 12.477,1.946 12.52,1.767C12.637,1.272 13.106,0.944 13.609,1.004C14.113,1.063 14.493,1.488 14.493,1.995L14.493,37.316C14.493,37.824 14.111,38.252 13.606,38.309C13.106,38.372 12.634,38.037 12.519,37.541C12.477,37.365 11.426,33.146 7.505,33.146C4.394,33.146 2.248,36.788 1.47,38.354C1.215,38.864 0.726,39.201 0.16,39.255C0.106,39.261 0.054,39.263 0,39.263" style="fill:rgb(67,111,142);fill-rule:nonzero;"/>
                    </g>
                    <g transform="matrix(1,0,0,1,383.154,214.683)">
                        <path d="M0,-28.476C0.206,-26.103 0.303,-23.73 0.383,-21.357C0.474,-18.984 0.486,-16.611 0.499,-14.238C0.488,-11.865 0.475,-9.492 0.384,-7.119L0.245,-3.559C0.162,-2.373 0.113,-1.186 0,0C-0.113,-1.186 -0.162,-2.373 -0.245,-3.559L-0.385,-7.119C-0.476,-9.492 -0.489,-11.865 -0.5,-14.238C-0.487,-16.611 -0.475,-18.984 -0.383,-21.357C-0.303,-23.73 -0.207,-26.103 0,-28.476" style="fill:rgb(67,111,142);fill-rule:nonzero;"/>
                    </g>
                    <g transform="matrix(-1,0,0,1,390.317,211.527)">
                        <path d="M0.001,-22.164C-0.393,-18.47 -0.483,-14.776 -0.499,-11.082C-0.485,-7.388 -0.395,-3.694 0.001,0C0.397,-3.694 0.486,-7.388 0.5,-11.082C0.484,-14.776 0.394,-18.47 0.001,-22.164" style="fill:rgb(67,111,142);fill-rule:nonzero;"/>
                    </g>
                    <g transform="matrix(1,0,0,1,387.01,216.383)">
                        <path d="M0,-31.876C0.206,-29.22 0.303,-26.564 0.383,-23.907C0.474,-21.251 0.487,-18.594 0.499,-15.938C0.488,-13.282 0.475,-10.626 0.385,-7.969L0.245,-3.984C0.162,-2.656 0.113,-1.328 0,0C-0.113,-1.328 -0.162,-2.656 -0.245,-3.984L-0.385,-7.969C-0.476,-10.626 -0.488,-13.282 -0.5,-15.938C-0.487,-18.594 -0.475,-21.251 -0.383,-23.907C-0.303,-26.564 -0.206,-29.22 0,-31.876" style="fill:rgb(67,111,142);fill-rule:nonzero;"/>
                    </g>
                    <g transform="matrix(1,0,0,1,400.821,221.104)">
                        <path d="M0,-41.788L0.01,-41.788L0,-41.788ZM21.398,-50.696C16.8,-50.696 12.866,-50.088 9.948,-49.428C2.464,-47.733 1.033,-41.82 0.976,-41.569C0.972,-41.55 0.965,-41.525 0.959,-41.505C0.953,-41.484 0.344,-39.367 0.298,-35.973C0.198,-28.716 0.362,-16.516 0.461,-9.226C0.497,-6.515 0.524,-4.51 0.524,-3.74C0.524,-0.246 2.916,6.825 11.967,8.576C18.472,9.835 40.607,13.002 52.303,0.884C58.588,-5.629 61.937,-15.108 61.041,-23.854C60.511,-29.029 58.256,-36.307 50.526,-41.584C40.057,-48.732 29.658,-50.696 21.398,-50.696M25.705,11.894C19.551,11.894 14.279,11.061 11.586,10.54C1.254,8.54 -1.476,0.325 -1.476,-3.74C-1.476,-4.506 -1.503,-6.501 -1.539,-9.2C-1.637,-16.499 -1.802,-28.716 -1.702,-36C-1.654,-39.498 -1.056,-41.731 -0.969,-42.039C-0.821,-42.661 0.969,-49.445 9.507,-51.378C17.982,-53.297 34.731,-54.79 51.653,-43.236C58.274,-38.716 62.208,-32.084 63.03,-24.058C63.984,-14.742 60.426,-4.653 53.742,2.273C46.287,9.997 34.992,11.893 25.705,11.894" style="fill:rgb(67,111,142);fill-rule:nonzero;"/>
                    </g>
                    <g transform="matrix(1,0,0,1,404.394,224.408)">
                        <path d="M0,-44.854C-0.833,-40.177 -1.162,-35.302 -1.009,-30.511C-0.832,-25.716 -0.12,-20.909 1.574,-16.453C2.439,-14.239 3.563,-12.128 4.994,-10.249C6.442,-8.359 8.146,-6.666 10.035,-5.223C13.816,-2.318 18.455,-0.604 23.223,-0.113C27.996,0.394 32.887,-0.236 37.464,-1.751C39.743,-2.528 41.981,-3.493 44.007,-4.79C46.037,-6.082 47.863,-7.699 49.425,-9.54C52.556,-13.217 54.63,-17.806 55.278,-22.618C55.952,-27.437 55.146,-32.403 53.293,-36.904C55.219,-32.435 56.114,-27.462 55.513,-22.588C54.938,-17.721 52.916,-13.033 49.788,-9.236C48.228,-7.335 46.392,-5.653 44.33,-4.293C42.267,-2.927 40.012,-1.906 37.696,-1.072C33.055,0.556 28.067,1.293 23.129,0.857C18.2,0.439 13.319,-1.258 9.3,-4.235C7.29,-5.713 5.476,-7.457 3.924,-9.409C2.364,-11.383 1.139,-13.596 0.19,-15.904C-1.668,-20.548 -2.482,-25.507 -2.751,-30.434C-2.99,-35.381 -2.754,-40.294 -1.965,-45.23C-1.877,-45.775 -1.364,-46.147 -0.819,-46.06C-0.273,-45.973 0.098,-45.459 0.011,-44.914C0.01,-44.91 0.009,-44.906 0.009,-44.902L0,-44.854Z" style="fill:rgb(67,111,142);fill-rule:nonzero;"/>
                    </g>
                </g>
                <g id="A_4-fill" transform="matrix(1,0,0,1,-7.94049,-120.171)">
                    <g>
                        <g transform="matrix(1,0,0,1,343.509,309.008)">
                            <path d="M-1.751,24.356L38.364,24.335C43.718,24.335 46.258,27.442 47.153,28.896C47.363,29.236 47.788,29.375 48.151,29.207C48.822,28.897 49.99,28.789 51.34,30.54C51.62,30.903 52.188,30.831 52.392,30.42C53.328,28.536 55.696,24.658 59.323,24.658C64.113,24.658 65.311,29.828 65.311,29.828L65.311,-5.493C65.311,-5.493 64.113,-0.323 59.323,-0.323C55.696,-0.323 53.328,-4.201 52.392,-6.085C52.188,-6.496 51.62,-6.568 51.34,-6.205C49.99,-4.454 48.822,-4.562 48.151,-4.872C47.788,-5.04 47.363,-4.901 47.153,-4.561C46.258,-3.107 43.718,-0 38.364,-0L-3.933,0.07" style="fill:rgb(67,111,142);fill-rule:nonzero;"/>
                        </g>
                        <g transform="matrix(1,0,0,1,408.82,342.443)">
                            <path d="M0,-42.965C0,-42.965 -0.653,-40.762 -0.702,-37.163C-0.839,-27.172 -0.476,-7.737 -0.476,-4.916C-0.476,-1.08 2.134,6.514 11.776,8.381C21.419,10.248 41.823,12.005 53.022,0.401C64.404,-11.393 66.716,-32.918 51.09,-43.587C34.418,-54.97 17.971,-53.445 9.729,-51.579C1.485,-49.713 0,-42.965 0,-42.965" style="fill:rgb(67,111,142);fill-rule:nonzero;"/>
                        </g>
                        <g transform="matrix(1,0,0,1,412.393,344.57)">
                            <path d="M0,-44.854C-0.833,-40.177 -1.162,-35.302 -1.009,-30.511C-0.832,-25.716 -0.12,-20.909 1.574,-16.453C2.439,-14.239 3.563,-12.128 4.994,-10.249C6.442,-8.359 8.146,-6.666 10.036,-5.223C13.816,-2.318 18.456,-0.604 23.223,-0.113C27.997,0.394 32.887,-0.236 37.464,-1.751C39.743,-2.528 41.982,-3.494 44.007,-4.79C46.038,-6.083 47.863,-7.699 49.425,-9.54C52.556,-13.217 54.63,-17.805 55.278,-22.618C55.952,-27.437 55.147,-32.403 53.293,-36.904C55.219,-32.435 56.114,-27.462 55.514,-22.587C54.938,-17.72 52.916,-13.033 49.788,-9.236C48.228,-7.334 46.392,-5.653 44.33,-4.293C42.267,-2.927 40.013,-1.906 37.697,-1.072C33.055,0.555 28.068,1.293 23.129,0.858C18.2,0.439 13.319,-1.257 9.3,-4.235C7.291,-5.713 5.476,-7.457 3.924,-9.41C2.364,-11.383 1.139,-13.596 0.19,-15.904C-1.668,-20.548 -2.482,-25.506 -2.751,-30.433C-2.99,-35.38 -2.754,-40.294 -1.964,-45.23C-1.877,-45.775 -1.364,-46.147 -0.819,-46.06C-0.273,-45.972 0.098,-45.459 0.011,-44.915C0.01,-44.91 0.009,-44.906 0.009,-44.902L0,-44.854Z" style="fill:white;fill-rule:nonzero;"/>
                        </g>
                        <g transform="matrix(1,0,0,1,391.153,334.845)">
                            <path d="M0,-28.476C0.206,-26.103 0.303,-23.73 0.383,-21.357C0.475,-18.984 0.487,-16.611 0.5,-14.238C0.488,-11.865 0.475,-9.493 0.385,-7.12L0.245,-3.56C0.162,-2.373 0.113,-1.187 0,0C-0.113,-1.187 -0.162,-2.373 -0.245,-3.56L-0.385,-7.12C-0.476,-9.493 -0.488,-11.865 -0.5,-14.238C-0.487,-16.611 -0.475,-18.984 -0.383,-21.357C-0.303,-23.73 -0.206,-26.103 0,-28.476" style="fill:white;fill-rule:nonzero;"/>
                        </g>
                        <g transform="matrix(-1,0,0,1,398.315,331.689)">
                            <path d="M-0.001,-22.164C-0.394,-18.471 -0.484,-14.776 -0.5,-11.082C-0.486,-7.389 -0.397,-3.694 -0.001,0C0.395,-3.694 0.485,-7.389 0.499,-11.082C0.483,-14.776 0.393,-18.471 -0.001,-22.164" style="fill:white;fill-rule:nonzero;"/>
                        </g>
                        <g transform="matrix(1,0,0,1,395.009,336.545)">
                            <path d="M0,-31.876C0.206,-29.22 0.303,-26.564 0.383,-23.907C0.475,-21.251 0.487,-18.595 0.5,-15.938C0.488,-13.281 0.476,-10.625 0.385,-7.969L0.245,-3.984C0.162,-2.656 0.113,-1.328 0,0C-0.113,-1.328 -0.162,-2.656 -0.245,-3.984L-0.385,-7.969C-0.476,-10.625 -0.488,-13.281 -0.5,-15.938C-0.487,-18.595 -0.475,-21.251 -0.383,-23.907C-0.303,-26.564 -0.206,-29.22 0,-31.876" style="fill:white;fill-rule:nonzero;"/>
                        </g>
                    </g>
                </g>
            </g>
            <g>
                <g>
                    <g transform="matrix(1,0,0,1,189.15,355.202)">
                        <path d="M0,39.271C-0.053,39.271 -0.106,39.268 -0.16,39.263C-0.726,39.208 -1.215,38.872 -1.468,38.363C-2.247,36.795 -4.393,33.154 -7.504,33.154C-11.425,33.154 -12.476,37.373 -12.519,37.552C-12.637,38.046 -13.111,38.374 -13.608,38.315C-14.112,38.256 -14.492,37.831 -14.492,37.324L-14.492,2.003C-14.492,1.495 -14.11,1.068 -13.605,1.01C-13.105,0.949 -12.633,1.282 -12.518,1.778C-12.476,1.955 -11.425,6.172 -7.504,6.172C-4.392,6.172 -2.247,2.531 -1.469,0.965C-1.214,0.455 -0.725,0.119 -0.158,0.064C0.39,0 0.932,0.24 1.271,0.682C1.775,1.335 2.528,2.049 3.247,1.716C4.064,1.338 5.04,1.637 5.517,2.411C6.273,3.639 8.563,6.496 13.454,6.496L54.513,6.496C55.065,6.496 55.513,6.943 55.513,7.496C55.513,8.048 55.065,8.496 54.513,8.496L13.454,8.496C7.738,8.496 4.925,5.19 3.906,3.607C3.169,3.891 1.664,4.117 0.064,2.355C-1.205,4.732 -3.701,8.172 -7.504,8.172C-9.732,8.172 -11.362,7.184 -12.492,5.94L-12.492,33.386C-11.362,32.142 -9.732,31.154 -7.504,31.154C-3.702,31.154 -1.206,34.594 0.064,36.972C1.662,35.21 3.168,35.436 3.906,35.72C4.925,34.136 7.738,30.831 13.454,30.831L53.34,30.831C53.893,30.831 54.34,31.278 54.34,31.831C54.34,32.383 53.893,32.831 53.34,32.831L13.454,32.831C8.563,32.831 6.273,35.688 5.517,36.917C5.04,37.689 4.067,37.989 3.248,37.612C2.525,37.274 1.775,37.992 1.271,38.646C0.963,39.044 0.497,39.271 0,39.271" style="fill:rgb(67,111,142);fill-rule:nonzero;"/>
                    </g>
                    <g transform="matrix(1,0,0,1,193.325,388.536)">
                        <path d="M0,-28.477C0.206,-26.104 0.303,-23.731 0.383,-21.358C0.475,-18.985 0.487,-16.612 0.5,-14.239C0.488,-11.866 0.476,-9.493 0.385,-7.12L0.245,-3.56C0.162,-2.373 0.113,-1.187 0,0C-0.113,-1.187 -0.162,-2.373 -0.245,-3.56L-0.385,-7.12C-0.475,-9.493 -0.488,-11.866 -0.499,-14.239C-0.487,-16.612 -0.474,-18.985 -0.383,-21.358C-0.303,-23.731 -0.206,-26.104 0,-28.477" style="fill:rgb(67,111,142);fill-rule:nonzero;"/>
                    </g>
                    <g transform="matrix(-1,0,0,1,186.162,385.379)">
                        <path d="M-0.001,-22.164C-0.394,-18.47 -0.484,-14.776 -0.5,-11.082C-0.486,-7.388 -0.397,-3.694 -0.001,0C0.395,-3.694 0.485,-7.388 0.499,-11.082C0.483,-14.776 0.393,-18.47 -0.001,-22.164" style="fill:rgb(67,111,142);fill-rule:nonzero;"/>
                    </g>
                    <g transform="matrix(1,0,0,1,189.468,390.235)">
                        <path d="M0,-31.877C0.206,-29.221 0.303,-26.565 0.383,-23.907C0.475,-21.251 0.487,-18.595 0.5,-15.939C0.488,-13.282 0.476,-10.626 0.385,-7.97L0.245,-3.985C0.162,-2.657 0.113,-1.329 0,0C-0.113,-1.329 -0.162,-2.657 -0.245,-3.985L-0.385,-7.97C-0.475,-10.626 -0.488,-13.282 -0.5,-15.939C-0.487,-18.595 -0.474,-21.251 -0.383,-23.907C-0.303,-26.565 -0.206,-29.221 0,-31.877" style="fill:rgb(67,111,142);fill-rule:nonzero;"/>
                    </g>
                    <g transform="matrix(1,0,0,1,154.259,403.863)">
                        <path d="M0,-59.602C-8.261,-59.602 -18.657,-57.64 -29.128,-50.491C-36.858,-45.213 -39.112,-37.935 -39.643,-32.759C-40.538,-24.013 -37.189,-14.536 -30.904,-8.023C-19.208,4.096 2.928,0.929 9.432,-0.33C18.482,-2.081 20.874,-9.152 20.874,-12.646C20.874,-13.415 20.901,-15.42 20.937,-18.133C21.036,-25.422 21.2,-37.623 21.101,-44.879C21.055,-48.274 20.445,-50.391 20.439,-50.412C20.434,-50.433 20.428,-50.455 20.423,-50.476C20.365,-50.727 18.935,-56.639 11.45,-58.333C8.533,-58.995 4.597,-59.602 0,-59.602M-4.306,2.987C-13.594,2.987 -24.888,1.091 -32.344,-6.634C-39.026,-13.559 -42.586,-23.647 -41.632,-32.963C-40.811,-40.99 -36.876,-47.623 -30.255,-52.143C-13.333,-63.698 3.415,-62.204 11.892,-60.285C20.431,-58.351 22.221,-51.567 22.367,-50.946C22.454,-50.637 23.053,-48.405 23.101,-44.907C23.2,-37.623 23.035,-25.406 22.937,-18.106C22.901,-15.407 22.874,-13.412 22.874,-12.646C22.874,-8.581 20.145,-0.366 9.813,1.633C7.12,2.155 1.848,2.987 -4.306,2.987" style="fill:rgb(67,111,142);fill-rule:nonzero;"/>
                    </g>
                    <g transform="matrix(1,0,0,1,174.049,398.629)">
                        <path d="M0,-45.6C0.789,-40.663 1.025,-35.75 0.786,-30.803C0.518,-25.876 -0.297,-20.918 -2.155,-16.274C-3.104,-13.966 -4.329,-11.752 -5.889,-9.779C-7.44,-7.827 -9.255,-6.083 -11.265,-4.605C-15.284,-1.627 -20.165,0.069 -25.094,0.488C-30.032,0.923 -35.02,0.186 -39.661,-1.442C-41.977,-2.276 -44.231,-3.296 -46.295,-4.662C-48.356,-6.022 -50.192,-7.704 -51.753,-9.606C-54.881,-13.403 -56.902,-18.09 -57.478,-22.957C-58.079,-27.832 -57.184,-32.804 -55.258,-37.274C-57.111,-32.773 -57.917,-27.806 -57.243,-22.988C-56.595,-18.175 -54.52,-13.587 -51.39,-9.91C-49.828,-8.069 -48.003,-6.452 -45.972,-5.16C-43.946,-3.863 -41.708,-2.898 -39.429,-2.121C-34.852,-0.605 -29.961,0.024 -25.187,-0.483C-20.42,-0.974 -15.781,-2.688 -12,-5.592C-10.11,-7.036 -8.407,-8.729 -6.959,-10.619C-5.527,-12.498 -4.404,-14.609 -3.539,-16.822C-1.845,-21.279 -1.133,-26.085 -0.956,-30.88C-0.803,-35.672 -1.132,-40.547 -1.965,-45.224L-1.973,-45.266C-2.069,-45.81 -1.707,-46.329 -1.163,-46.426C-0.619,-46.523 -0.1,-46.161 -0.003,-45.618C-0.003,-45.613 -0.001,-45.604 0,-45.6" style="fill:rgb(67,111,142);fill-rule:nonzero;"/>
                    </g>
                </g>
                <g id="G_3-fill" transform="matrix(-1,0,0,1,584.487,53.6801)">
                    <g>
                        <g transform="matrix(1,0,0,1,343.509,309.008)">
                            <path d="M-1.751,24.356L38.364,24.335C43.718,24.335 46.258,27.442 47.153,28.896C47.363,29.236 47.788,29.375 48.151,29.207C48.822,28.897 49.99,28.789 51.34,30.54C51.62,30.903 52.188,30.831 52.392,30.42C53.328,28.536 55.696,24.658 59.323,24.658C64.113,24.658 65.311,29.828 65.311,29.828L65.311,-5.493C65.311,-5.493 64.113,-0.323 59.323,-0.323C55.696,-0.323 53.328,-4.201 52.392,-6.085C52.188,-6.496 51.62,-6.568 51.34,-6.205C49.99,-4.454 48.822,-4.562 48.151,-4.872C47.788,-5.04 47.363,-4.901 47.153,-4.561C46.258,-3.107 43.718,-0 38.364,-0L-2.81,-0.17" style="fill:rgb(67,111,142);fill-rule:nonzero;"/>
                        </g>
                        <g transform="matrix(1,0,0,1,408.82,342.443)">
                            <path d="M0,-42.965C0,-42.965 -0.653,-40.762 -0.702,-37.163C-0.839,-27.172 -0.476,-7.737 -0.476,-4.916C-0.476,-1.08 2.134,6.514 11.776,8.381C21.419,10.248 41.823,12.005 53.022,0.401C64.404,-11.393 66.716,-32.918 51.09,-43.587C34.418,-54.97 17.971,-53.445 9.729,-51.579C1.485,-49.713 0,-42.965 0,-42.965" style="fill:rgb(67,111,142);fill-rule:nonzero;"/>
                        </g>
                        <g transform="matrix(1,0,0,1,412.393,344.57)">
                            <path d="M0,-44.854C-0.833,-40.177 -1.162,-35.302 -1.009,-30.511C-0.832,-25.716 -0.12,-20.909 1.574,-16.453C2.439,-14.239 3.563,-12.128 4.994,-10.249C6.442,-8.359 8.146,-6.666 10.036,-5.223C13.816,-2.318 18.456,-0.604 23.223,-0.113C27.997,0.394 32.887,-0.236 37.464,-1.751C39.743,-2.528 41.982,-3.494 44.007,-4.79C46.038,-6.083 47.863,-7.699 49.425,-9.54C52.556,-13.217 54.63,-17.805 55.278,-22.618C55.952,-27.437 55.147,-32.403 53.293,-36.904C55.219,-32.435 56.114,-27.462 55.514,-22.587C54.938,-17.72 52.916,-13.033 49.788,-9.236C48.228,-7.334 46.392,-5.653 44.33,-4.293C42.267,-2.927 40.013,-1.906 37.697,-1.072C33.055,0.555 28.068,1.293 23.129,0.858C18.2,0.439 13.319,-1.257 9.3,-4.235C7.291,-5.713 5.476,-7.457 3.924,-9.41C2.364,-11.383 1.139,-13.596 0.19,-15.904C-1.668,-20.548 -2.482,-25.506 -2.751,-30.433C-2.99,-35.38 -2.754,-40.294 -1.964,-45.23C-1.877,-45.775 -1.364,-46.147 -0.819,-46.06C-0.273,-45.972 0.098,-45.459 0.011,-44.915C0.01,-44.91 0.009,-44.906 0.009,-44.902L0,-44.854Z" style="fill:white;fill-rule:nonzero;"/>
                        </g>
                        <g transform="matrix(1,0,0,1,391.153,334.845)">
                            <path d="M0,-28.476C0.206,-26.103 0.303,-23.73 0.383,-21.357C0.475,-18.984 0.487,-16.611 0.5,-14.238C0.488,-11.865 0.475,-9.493 0.385,-7.12L0.245,-3.56C0.162,-2.373 0.113,-1.187 0,0C-0.113,-1.187 -0.162,-2.373 -0.245,-3.56L-0.385,-7.12C-0.476,-9.493 -0.488,-11.865 -0.5,-14.238C-0.487,-16.611 -0.475,-18.984 -0.383,-21.357C-0.303,-23.73 -0.206,-26.103 0,-28.476" style="fill:white;fill-rule:nonzero;"/>
                        </g>
                        <g transform="matrix(-1,0,0,1,398.315,331.689)">
                            <path d="M-0.001,-22.164C-0.394,-18.471 -0.484,-14.776 -0.5,-11.082C-0.486,-7.389 -0.397,-3.694 -0.001,0C0.395,-3.694 0.485,-7.389 0.499,-11.082C0.483,-14.776 0.393,-18.471 -0.001,-22.164" style="fill:white;fill-rule:nonzero;"/>
                        </g>
                        <g transform="matrix(1,0,0,1,395.009,336.545)">
                            <path d="M0,-31.876C0.206,-29.22 0.303,-26.564 0.383,-23.907C0.475,-21.251 0.487,-18.595 0.5,-15.938C0.488,-13.281 0.476,-10.625 0.385,-7.969L0.245,-3.984C0.162,-2.656 0.113,-1.328 0,0C-0.113,-1.328 -0.162,-2.656 -0.245,-3.984L-0.385,-7.969C-0.476,-10.625 -0.488,-13.281 -0.5,-15.938C-0.487,-18.595 -0.475,-21.251 -0.383,-23.907C-0.303,-26.564 -0.206,-29.22 0,-31.876" style="fill:white;fill-rule:nonzero;"/>
                        </g>
                    </g>
                </g>
            </g>
            <g>
                <g>
                    <g transform="matrix(1,0,0,1,197.346,229.726)">
                        <path d="M0,39.264C-0.053,39.264 -0.106,39.262 -0.16,39.256C-0.727,39.201 -1.216,38.864 -1.469,38.355C-2.247,36.789 -4.393,33.147 -7.505,33.147C-11.426,33.147 -12.477,37.366 -12.52,37.546C-12.638,38.039 -13.122,38.362 -13.609,38.308C-14.113,38.249 -14.493,37.824 -14.493,37.317L-14.493,1.996C-14.493,1.488 -14.112,1.061 -13.606,1.003C-13.104,0.948 -12.634,1.276 -12.519,1.771C-12.477,1.947 -11.426,6.166 -7.505,6.166C-4.393,6.166 -2.247,2.524 -1.469,0.958C-1.216,0.45 -0.728,0.113 -0.161,0.057C0.388,0 0.93,0.232 1.271,0.673C1.776,1.331 2.53,2.043 3.247,1.709C4.062,1.333 5.039,1.629 5.517,2.404C6.273,3.632 8.563,6.489 13.454,6.489L55.431,6.489C55.983,6.489 56.431,6.937 56.431,7.489C56.431,8.041 55.983,8.489 55.431,8.489L13.454,8.489C7.738,8.489 4.925,5.183 3.906,3.6C3.168,3.882 1.662,4.109 0.064,2.348C-1.206,4.726 -3.703,8.166 -7.505,8.166C-9.732,8.166 -11.363,7.177 -12.493,5.933L-12.493,33.38C-11.363,32.136 -9.732,31.147 -7.505,31.147C-3.702,31.147 -1.206,34.587 0.064,36.965C1.662,35.202 3.168,35.43 3.906,35.713C4.926,34.129 7.74,30.824 13.454,30.824L53.34,30.824C53.893,30.824 54.34,31.272 54.34,31.824C54.34,32.376 53.893,32.824 53.34,32.824L13.454,32.824C8.563,32.824 6.273,35.681 5.517,36.91C5.041,37.682 4.065,37.981 3.247,37.604C2.524,37.269 1.775,37.984 1.271,38.639C0.964,39.037 0.498,39.264 0,39.264" style="fill:rgb(67,111,142);fill-rule:nonzero;"/>
                    </g>
                    <g transform="matrix(1,0,0,1,201.521,263.052)">
                        <path d="M0,-28.476C0.206,-26.103 0.303,-23.73 0.383,-21.357C0.474,-18.984 0.487,-16.611 0.5,-14.238C0.488,-11.865 0.475,-9.492 0.385,-7.119L0.245,-3.559C0.162,-2.373 0.113,-1.186 0,0C-0.113,-1.186 -0.162,-2.373 -0.245,-3.559L-0.385,-7.119C-0.476,-9.492 -0.488,-11.865 -0.5,-14.238C-0.487,-16.611 -0.475,-18.984 -0.383,-21.357C-0.303,-23.73 -0.206,-26.103 0,-28.476" style="fill:rgb(67,111,142);fill-rule:nonzero;"/>
                    </g>
                    <g transform="matrix(-1,0,0,1,194.358,259.896)">
                        <path d="M0,-22.164C-0.394,-18.47 -0.483,-14.776 -0.5,-11.082C-0.485,-7.388 -0.396,-3.694 0,0C0.396,-3.694 0.485,-7.388 0.5,-11.082C0.483,-14.776 0.394,-18.47 0,-22.164" style="fill:rgb(67,111,142);fill-rule:nonzero;"/>
                    </g>
                    <g transform="matrix(1,0,0,1,197.665,264.752)">
                        <path d="M0,-31.876C0.206,-29.22 0.303,-26.564 0.383,-23.907C0.474,-21.251 0.487,-18.594 0.499,-15.938C0.488,-13.282 0.475,-10.626 0.385,-7.969L0.245,-3.984C0.162,-2.656 0.113,-1.328 0,0C-0.113,-1.328 -0.162,-2.656 -0.245,-3.984L-0.385,-7.969C-0.476,-10.626 -0.488,-13.282 -0.5,-15.938C-0.487,-18.594 -0.475,-21.251 -0.383,-23.907C-0.303,-26.564 -0.206,-29.22 0,-31.876" style="fill:rgb(67,111,142);fill-rule:nonzero;"/>
                    </g>
                    <g transform="matrix(1,0,0,1,162.455,278.379)">
                        <path d="M0,-59.601C-8.26,-59.601 -18.657,-57.639 -29.128,-50.49C-36.857,-45.211 -39.112,-37.934 -39.642,-32.758C-40.537,-24.012 -37.188,-14.534 -30.903,-8.022C-19.21,4.096 2.929,0.931 9.433,-0.329C18.483,-2.08 20.875,-9.151 20.875,-12.645C20.875,-13.415 20.902,-15.423 20.938,-18.139C21.036,-25.427 21.2,-37.624 21.102,-44.878C21.055,-48.272 20.445,-50.39 20.439,-50.411C20.434,-50.431 20.428,-50.454 20.423,-50.475C20.365,-50.726 18.936,-56.638 11.45,-58.333C8.533,-58.993 4.598,-59.601 0,-59.601M-4.306,2.988C-13.594,2.988 -24.888,1.092 -32.343,-6.633C-39.026,-13.558 -42.585,-23.646 -41.632,-32.961C-40.81,-40.989 -36.876,-47.621 -30.255,-52.141C-13.333,-63.697 3.415,-62.204 11.892,-60.283C20.431,-58.35 22.221,-51.566 22.367,-50.944C22.454,-50.636 23.053,-48.403 23.102,-44.906C23.2,-37.624 23.036,-25.41 22.938,-18.112C22.902,-15.41 22.875,-13.412 22.875,-12.645C22.875,-8.58 20.146,-0.365 9.813,1.634C7.121,2.156 1.848,2.988 -4.306,2.988" style="fill:rgb(67,111,142);fill-rule:nonzero;"/>
                    </g>
                    <g transform="matrix(1,0,0,1,182.245,273.146)">
                        <path d="M0,-45.599C0.789,-40.663 1.026,-35.75 0.787,-30.803C0.518,-25.876 -0.296,-20.917 -2.155,-16.273C-3.103,-13.966 -4.328,-11.752 -5.888,-9.778C-7.439,-7.826 -9.255,-6.082 -11.264,-4.604C-15.283,-1.627 -20.164,0.069 -25.093,0.488C-30.032,0.924 -35.02,0.187 -39.661,-1.441C-41.977,-2.275 -44.23,-3.296 -46.294,-4.662C-48.355,-6.022 -50.192,-7.704 -51.753,-9.605C-54.881,-13.402 -56.902,-18.09 -57.478,-22.957C-58.078,-27.832 -57.184,-32.804 -55.258,-37.273C-57.111,-32.772 -57.916,-27.806 -57.242,-22.987C-56.594,-18.175 -54.52,-13.586 -51.389,-9.909C-49.827,-8.068 -48.002,-6.451 -45.972,-5.159C-43.946,-3.863 -41.707,-2.897 -39.428,-2.121C-34.852,-0.604 -29.961,0.025 -25.187,-0.482C-20.42,-0.974 -15.781,-2.687 -12,-5.592C-10.109,-7.036 -8.406,-8.728 -6.958,-10.618C-5.527,-12.497 -4.403,-14.608 -3.538,-16.822C-1.844,-21.278 -1.132,-26.085 -0.956,-30.88C-0.803,-35.671 -1.132,-40.546 -1.964,-45.224L-1.972,-45.266C-2.068,-45.81 -1.706,-46.329 -1.162,-46.426C-0.619,-46.523 -0.1,-46.161 -0.003,-45.617C-0.002,-45.613 0,-45.603 0,-45.599" style="fill:rgb(67,111,142);fill-rule:nonzero;"/>
                    </g>
                </g>
                <g id="D_4-fill" transform="matrix(-1,0,0,1,592.671,-71.8023)">
                    <g>
                        <g transform="matrix(1,0,0,1,343.509,309.008)">
                            <path d="M-1.751,24.356L38.364,24.335C43.718,24.335 46.258,27.442 47.153,28.896C47.363,29.236 47.788,29.375 48.151,29.207C48.822,28.897 49.99,28.789 51.34,30.54C51.62,30.903 52.188,30.831 52.392,30.42C53.328,28.536 55.696,24.658 59.323,24.658C64.113,24.658 65.311,29.828 65.311,29.828L65.311,-5.493C65.311,-5.493 64.113,-0.323 59.323,-0.323C55.696,-0.323 53.328,-4.201 52.392,-6.085C52.188,-6.496 51.62,-6.568 51.34,-6.205C49.99,-4.454 48.822,-4.562 48.151,-4.872C47.788,-5.04 47.363,-4.901 47.153,-4.561C46.258,-3.107 43.718,-0 38.364,-0L-2.81,-0.17" style="fill:rgb(67,111,142);fill-rule:nonzero;"/>
                        </g>
                        <g transform="matrix(1,0,0,1,408.82,342.443)">
                            <path d="M0,-42.965C0,-42.965 -0.653,-40.762 -0.702,-37.163C-0.839,-27.172 -0.476,-7.737 -0.476,-4.916C-0.476,-1.08 2.134,6.514 11.776,8.381C21.419,10.248 41.823,12.005 53.022,0.401C64.404,-11.393 66.716,-32.918 51.09,-43.587C34.418,-54.97 17.971,-53.445 9.729,-51.579C1.485,-49.713 0,-42.965 0,-42.965" style="fill:rgb(67,111,142);fill-rule:nonzero;"/>
                        </g>
                        <g transform="matrix(1,0,0,1,412.393,344.57)">
                            <path d="M0,-44.854C-0.833,-40.177 -1.162,-35.302 -1.009,-30.511C-0.832,-25.716 -0.12,-20.909 1.574,-16.453C2.439,-14.239 3.563,-12.128 4.994,-10.249C6.442,-8.359 8.146,-6.666 10.036,-5.223C13.816,-2.318 18.456,-0.604 23.223,-0.113C27.997,0.394 32.887,-0.236 37.464,-1.751C39.743,-2.528 41.982,-3.494 44.007,-4.79C46.038,-6.083 47.863,-7.699 49.425,-9.54C52.556,-13.217 54.63,-17.805 55.278,-22.618C55.952,-27.437 55.147,-32.403 53.293,-36.904C55.219,-32.435 56.114,-27.462 55.514,-22.587C54.938,-17.72 52.916,-13.033 49.788,-9.236C48.228,-7.334 46.392,-5.653 44.33,-4.293C42.267,-2.927 40.013,-1.906 37.697,-1.072C33.055,0.555 28.068,1.293 23.129,0.858C18.2,0.439 13.319,-1.257 9.3,-4.235C7.291,-5.713 5.476,-7.457 3.924,-9.41C2.364,-11.383 1.139,-13.596 0.19,-15.904C-1.668,-20.548 -2.482,-25.506 -2.751,-30.433C-2.99,-35.38 -2.754,-40.294 -1.964,-45.23C-1.877,-45.775 -1.364,-46.147 -0.819,-46.06C-0.273,-45.972 0.098,-45.459 0.011,-44.915C0.01,-44.91 0.009,-44.906 0.009,-44.902L0,-44.854Z" style="fill:white;fill-rule:nonzero;"/>
                        </g>
                        <g transform="matrix(1,0,0,1,391.153,334.845)">
                            <path d="M0,-28.476C0.206,-26.103 0.303,-23.73 0.383,-21.357C0.475,-18.984 0.487,-16.611 0.5,-14.238C0.488,-11.865 0.475,-9.493 0.385,-7.12L0.245,-3.56C0.162,-2.373 0.113,-1.187 0,0C-0.113,-1.187 -0.162,-2.373 -0.245,-3.56L-0.385,-7.12C-0.476,-9.493 -0.488,-11.865 -0.5,-14.238C-0.487,-16.611 -0.475,-18.984 -0.383,-21.357C-0.303,-23.73 -0.206,-26.103 0,-28.476" style="fill:white;fill-rule:nonzero;"/>
                        </g>
                        <g transform="matrix(-1,0,0,1,398.315,331.689)">
                            <path d="M-0.001,-22.164C-0.394,-18.471 -0.484,-14.776 -0.5,-11.082C-0.486,-7.389 -0.397,-3.694 -0.001,0C0.395,-3.694 0.485,-7.389 0.499,-11.082C0.483,-14.776 0.393,-18.471 -0.001,-22.164" style="fill:white;fill-rule:nonzero;"/>
                        </g>
                        <g transform="matrix(1,0,0,1,395.009,336.545)">
                            <path d="M0,-31.876C0.206,-29.22 0.303,-26.564 0.383,-23.907C0.475,-21.251 0.487,-18.595 0.5,-15.938C0.488,-13.281 0.476,-10.625 0.385,-7.969L0.245,-3.984C0.162,-2.656 0.113,-1.328 0,0C-0.113,-1.328 -0.162,-2.656 -0.245,-3.984L-0.385,-7.969C-0.476,-10.625 -0.488,-13.281 -0.5,-15.938C-0.487,-18.595 -0.475,-21.251 -0.383,-23.907C-0.303,-26.564 -0.206,-29.22 0,-31.876" style="fill:white;fill-rule:nonzero;"/>
                        </g>
                    </g>
                </g>
            </g>
            <g transform="matrix(1.03695,0,0,1.03695,-5.07023,-3.69691)">
                <g transform="matrix(65.2646,0,0,65.2646,481.126,221.117)">
                    <g id="A_4">
                        <g>
                            <path d="M0.271,-0L0.271,-0.259L0.121,-0.259L0.013,-0L-0.038,-0L0.258,-0.717L0.318,-0.717L0.318,-0L0.271,-0ZM0.271,-0.307L0.271,-0.488L0.274,-0.661C0.269,-0.644 0.261,-0.619 0.249,-0.587C0.236,-0.554 0.2,-0.461 0.138,-0.307L0.271,-0.307Z" style="fill:rgb(226,92,27);fill-rule:nonzero;"/>
                        </g>
                    </g>
                </g>
                <g transform="matrix(65.2646,0,0,65.2646,62.3338,266.456)">
                    <g id="D_4">
                        <g>
                            <path d="M0.446,-0.511C0.446,-0.414 0.432,-0.325 0.406,-0.245C0.379,-0.166 0.341,-0.105 0.293,-0.063C0.245,-0.021 0.189,-0 0.125,-0L0.032,-0L0.183,-0.714L0.289,-0.714C0.339,-0.714 0.378,-0.697 0.405,-0.663C0.432,-0.628 0.446,-0.578 0.446,-0.511ZM0.135,-0.046C0.184,-0.046 0.228,-0.065 0.267,-0.103C0.306,-0.14 0.337,-0.196 0.36,-0.271C0.383,-0.346 0.395,-0.426 0.395,-0.511C0.395,-0.615 0.357,-0.667 0.282,-0.667L0.222,-0.667L0.09,-0.046L0.135,-0.046Z" style="fill:rgb(226,92,27);fill-rule:nonzero;"/>
                        </g>
                    </g>
                </g>
                <g transform="matrix(65.2646,0,0,65.2646,60.1148,386.761)">
                    <g id="G_3">
                        <g>
                            <path d="M0.315,-0.362L0.459,-0.362L0.385,-0.016C0.34,0.001 0.293,0.01 0.244,0.01C0.125,0.01 0.066,-0.065 0.066,-0.214C0.066,-0.274 0.074,-0.337 0.091,-0.404C0.107,-0.471 0.13,-0.529 0.158,-0.578C0.187,-0.628 0.219,-0.664 0.256,-0.689C0.292,-0.713 0.331,-0.725 0.373,-0.725C0.428,-0.725 0.477,-0.71 0.52,-0.679L0.489,-0.636C0.467,-0.653 0.446,-0.664 0.428,-0.669C0.41,-0.675 0.39,-0.678 0.37,-0.678C0.334,-0.678 0.301,-0.667 0.27,-0.643C0.24,-0.62 0.213,-0.586 0.19,-0.541C0.166,-0.497 0.148,-0.445 0.134,-0.385C0.121,-0.324 0.114,-0.267 0.114,-0.211C0.114,-0.149 0.125,-0.104 0.147,-0.076C0.17,-0.049 0.203,-0.035 0.249,-0.035C0.282,-0.035 0.313,-0.04 0.343,-0.049L0.4,-0.316L0.305,-0.316L0.315,-0.362Z" style="fill:rgb(226,92,27);fill-rule:nonzero;"/>
                        </g>
                    </g>
                </g>
                <g transform="matrix(65.2646,0,0,65.2646,476.558,337.491)">
                    <g id="E_5">
                        <g>
                            <path d="M0.265,-0L0.032,-0L0.183,-0.714L0.416,-0.714L0.406,-0.667L0.222,-0.667L0.165,-0.397L0.338,-0.397L0.328,-0.351L0.155,-0.351L0.09,-0.046L0.274,-0.046L0.265,-0Z" style="fill:rgb(226,92,27);fill-rule:nonzero;"/>
                        </g>
                    </g>
                </g>
            </g>
        </g>
    </g>
</svg>
